<?xml version="1.0" encoding="utf-8"?>
<!-- Generator: Adobe Illustrator 25.0.1, SVG Export Plug-In . SVG Version: 6.00 Build 0)  -->
<svg version="1.1" id="Слой_1" xmlns="http://www.w3.org/2000/svg" xmlns:xlink="http://www.w3.org/1999/xlink" x="0px" y="0px"
	 viewBox="0 0 43.44 43.44" style="enable-background:new 0 0 43.44 43.44;" xml:space="preserve">
<style type="text/css">
	.st0{fill:#2DBDEF;}
</style>
<path class="st0" d="M21.72,0C9.72,0,0,9.72,0,21.72c0,12,9.72,21.72,21.72,21.72c12,0,21.72-9.72,21.72-21.72
	C43.44,9.72,33.72,0,21.72,0z M12.6,21.72c0.72,6.24,3.12,6.97,6.24,9.3l-1.68,4.49c0,0-9.6-3.35-9.72-13.8
	c0,0,0.36-11.16,9.96-14.04l1.44,4.68C18.84,12.36,11.88,15.48,12.6,21.72z M27.12,35.64l-1.68-4.49c3.12-2.33,5.52-3.07,6.24-9.3
	c0.72-6.24-6.24-9.36-6.24-9.36l1.44-4.68c9.6,2.88,9.96,14.04,9.96,14.04C36.72,32.29,27.12,35.64,27.12,35.64z"/>
</svg>
