<?xml version="1.0" encoding="utf-8"?>
<!-- Generator: Adobe Illustrator 25.0.1, SVG Export Plug-In . SVG Version: 6.00 Build 0)  -->
<svg version="1.1" id="Слой_2" xmlns="http://www.w3.org/2000/svg" xmlns:xlink="http://www.w3.org/1999/xlink" x="0px" y="0px"
	 viewBox="0 0 523.91 388.09" style="enable-background:new 0 0 523.91 388.09;" xml:space="preserve">
<style type="text/css">
	.st0{fill:#24BCEE;}
	.st1{fill:#FFFFFF;}
	.st2{fill:#A2B8C6;}
	.st3{fill:#BFDAE6;}
	.st4{fill:#FFFFFE;}
	.st5{fill:#E9EFEF;}
	.st6{fill:#374E78;}
	.st7{fill:#C0DBE6;stroke:#F4F3F4;stroke-width:6.1893;stroke-miterlimit:10;}
	.st8{fill:#B3C8DD;}
	.st9{fill:#E4E9EB;}
	.st10{fill:#D1CBD9;}
	.st11{fill:#FDE2CC;}
	.st12{fill:#F9F6C5;}
	.st13{fill:#715169;}
	.st14{fill:#F4F3F4;}
	.st15{fill:#EC6065;}
	.st16{fill:#45BEE1;}
	.st17{fill:#FFDC74;stroke:#D9BB79;stroke-miterlimit:10;}
	.st18{fill:#686A77;}
	.st19{fill:#DE5449;stroke:#B7655A;stroke-miterlimit:10;}
	.st20{fill:#DD5549;}
	.st21{fill:#ED6A66;}
	.st22{fill:#5C5F70;}
	.st23{fill:#E3EBF8;}
	.st24{fill:#F2F5FC;}
	.st25{fill:#5D779D;}
	.st26{fill:#517298;}
</style>
<g>
	<path class="st0" d="M407.48,350.96L223.63,301.8c-3.68-0.98-5.87-4.77-4.89-8.45l68.16-254.88c0.98-3.68,4.77-5.87,8.45-4.89
		l183.85,49.16c3.68,0.98,5.87,4.77,4.89,8.45l-68.16,254.88C414.95,349.76,411.16,351.95,407.48,350.96z"/>
	
		<rect x="264.17" y="65.27" transform="matrix(0.9661 0.2583 -0.2583 0.9661 61.4066 -84.4475)" class="st1" width="175.78" height="252.35"/>
	<circle class="st2" cx="390.67" cy="48.11" r="10.63"/>
	<path class="st3" d="M435.12,78.05l-97.93-26.19c-2.52-0.67-4.02-3.27-3.34-5.79l1.67-6.26c0.67-2.52,3.27-4.02,5.79-3.34
		l97.93,26.19c2.52,0.67,4.02,3.27,3.34,5.79l-1.67,6.26C440.23,77.23,437.64,78.73,435.12,78.05z"/>
	<path class="st4" d="M436.55,68.02l-95.56-25.55c-0.89-0.24-1.41-1.15-1.17-2.03l0,0c0.24-0.89,1.15-1.41,2.03-1.17l95.56,25.55
		c0.89,0.24,1.41,1.15,1.17,2.03l0,0C438.34,67.73,437.43,68.26,436.55,68.02z"/>
	<path class="st3" d="M44.51,54.33c0,0-8.26,4.86-10.64,12.35c0,0-4.43,12.13,2.21,22.34l32.98,78.04l3.88-2.72L38.81,85.19
		c0,0-8.72-17.23,8.15-27.42l1.02-4.58L44.51,54.33z"/>
	<path class="st2" d="M55.64,55.41l-5.19,2.36c-2.12,0.96-4.61,0.03-5.58-2.09l0,0c-0.96-2.12-0.03-4.61,2.09-5.58l5.19-2.36
		c2.12-0.96,4.61-0.03,5.58,2.09l0,0C58.69,51.95,57.76,54.45,55.64,55.41z"/>
	<path class="st3" d="M136.05,34.41c0,0,14.97-2.43,20.46,15.89l11.11,90.38l3.77-1.79L160.66,48.7c0,0-3.48-18.63-24.02-18.98
		l-2.73,0.34v4.34L136.05,34.41z"/>
	<path class="st2" d="M133.14,35.83l-5.69,0.34c-2.32,0.14-4.32-1.63-4.46-3.95v0c-0.14-2.32,1.63-4.32,3.95-4.46l5.69-0.34
		c2.32-0.14,4.32,1.63,4.46,3.95v0C137.23,33.7,135.46,35.69,133.14,35.83z"/>
	<path class="st0" d="M120.96,126.12l-3.32-5.09c-1.29-1.98-3.95-2.54-5.93-1.25c-1.98,1.29-2.54,3.95-1.25,5.93l3.32,5.09
		L120.96,126.12z"/>
	<path class="st3" d="M113.78,130.82l3.31,5.1c1.29,1.99,3.95,2.55,5.94,1.26c1.99-1.29,2.55-3.95,1.26-5.94l-3.31-5.1
		L113.78,130.82z"/>
	<path class="st0" d="M147.47,146.25l3.3-5.11c1.29-1.99,0.71-4.64-1.27-5.93c-1.99-1.29-4.64-0.71-5.93,1.27l-3.3,5.11
		L147.47,146.25z"/>
	<path class="st3" d="M140.26,141.6l-3.31,5.1c-1.29,1.99-0.72,4.64,1.26,5.93c1.99,1.29,4.64,0.72,5.93-1.26l3.31-5.1L140.26,141.6
		z"/>
	<path class="st0" d="M267.45,305.11l-1.4-6.26l-5.23,3.96c0,0,6.51,25.91-13.91,44.43c-20.43,18.51-52.43,17.45-70.04-6.89
		c-2.3-3.35-4.84-7.71-6.94-13.09c-1.29-3.29-2.18-6.38-2.81-9.13c-9.9-37.62-19.8-75.23-29.7-112.85
		c4.23-1.29,9.76-3.57,15.32-7.74c13.29-9.97,17.63-23.9,18.98-29.15c0.36-2,0.67-4.08,0.92-6.24c0.91-7.92,0.79-15.16,0.19-21.46
		c0.25-2.21-1.52-3.97-3.28-3.89c-1.67,0.07-3.23,1.8-2.98,3.89c1.29,7.43,1.9,18.3-2.09,30.04c-1.31,3.85-3.1,8.96-7.45,14.32
		c-7.7,9.47-17.8,12.54-22.59,14.23c-24.64,8.68-47.74-5.87-57.7-28.98l-3.1-6c0,0-1.82-1.63-3.83-0.57
		c-2.01,1.05-1.28,3.86-1.28,3.86s15.39,48.07,62.71,39.22l32.68,121.7c0,0,9.83,37.62,51.57,37.74
		C257.23,366.38,271.91,326.3,267.45,305.11z"/>
	<circle class="st5" cx="259.15" cy="285.19" r="22.34"/>
	<circle class="st6" cx="259.15" cy="285.19" r="11.74"/>
	
		<rect x="199.62" y="84.6" transform="matrix(0.9939 0.1105 -0.1105 0.9939 25.794 -31.1989)" class="st7" width="189.57" height="265.08"/>
	
		<rect x="240.78" y="82.04" transform="matrix(0.9939 0.1105 -0.1105 0.9939 13.7248 -26.8971)" class="st8" width="17.55" height="56.69"/>
	<path class="st9" d="M263.19,96.79l-24.88-2.44l-1.45,14.76l0,0l-0.92,9.4c-0.16,1.58,1,2.99,2.58,3.14l7.12,0.7l2.15,2.6
		l2.59-2.14l7.3,0.72c1.58,0.16,2.99-1,3.14-2.58l0.05-0.49l0,0L263.19,96.79z"/>
	
		<rect x="220.8" y="230.52" transform="matrix(0.9939 0.1105 -0.1105 0.9939 28.2635 -30.902)" class="st9" width="144.32" height="18.11"/>
	
		<rect x="222.68" y="219.5" transform="matrix(0.9939 0.1105 -0.1105 0.9939 26.4124 -31.2123)" class="st9" width="144.32" height="6.42"/>
	
		<rect x="223.8" y="209.42" transform="matrix(0.9939 0.1105 -0.1105 0.9939 25.3049 -31.3979)" class="st9" width="144.32" height="6.42"/>
	
		<rect x="224.97" y="198.86" transform="matrix(0.9939 0.1105 -0.1105 0.9939 24.1458 -31.5922)" class="st9" width="144.32" height="6.42"/>
	
		<rect x="226.12" y="188.55" transform="matrix(0.9939 0.1105 -0.1105 0.9939 23.0135 -31.782)" class="st9" width="144.32" height="6.42"/>
	<circle class="st10" cx="348.17" cy="289.15" r="14.81"/>
	<circle class="st11" cx="348.17" cy="289.15" r="10.81"/>
	<circle class="st10" cx="348.17" cy="289.15" r="8.38"/>
	<circle class="st12" cx="348.17" cy="289.15" r="6.98"/>
	
		<rect x="222.37" y="267.2" transform="matrix(0.9974 0.072 -0.072 0.9974 19.9665 -15.4499)" class="st13" width="3.79" height="4"/>
	
		<rect x="222.03" y="272.59" transform="matrix(0.9974 0.072 -0.072 0.9974 20.3463 -15.4087)" class="st13" width="3.69" height="3.79"/>
	
		<rect x="221.67" y="277.65" transform="matrix(0.9974 0.072 -0.072 0.9974 20.7099 -15.3693)" class="st13" width="3.69" height="3.79"/>
	
		<rect x="216.38" y="271.91" transform="matrix(0.9974 0.072 -0.072 0.9974 20.2833 -15.0154)" class="st13" width="4.03" height="3.79"/>
	
		<rect x="227.25" y="272.97" transform="matrix(0.9974 0.072 -0.072 0.9974 20.3873 -15.7866)" class="st13" width="3.79" height="3.79"/>
	<path class="st13" d="M220.62,271l0.3-4.11c-2.21-0.16-4.13,1.5-4.29,3.71c0,0.04,0,0.07,0,0.11L220.62,271z"/>
	<path class="st13" d="M220.15,277.23l-4.11-0.3c-0.16,2.21,1.5,4.13,3.71,4.29c0.04,0,0.07,0,0.11,0L220.15,277.23z"/>
	<path class="st13" d="M227.05,278l-0.28,3.84c2.07,0.15,3.87-1.41,4.02-3.48c0-0.03,0-0.07,0-0.1L227.05,278z"/>
	<path class="st13" d="M227.52,271.44l4,0.29c0.16-2.15-1.46-4.02-3.62-4.18c-0.04,0-0.07,0-0.1,0L227.52,271.44z"/>
	<path class="st14" d="M148.79,326.32L25.51,312.62c-3.9-0.43-6.72-3.95-6.28-7.86l8.07-72.62c0.43-3.9,3.95-6.72,7.86-6.28
		l123.28,13.71c3.9,0.43,6.72,3.95,6.28,7.86l-8.07,72.62C156.21,323.94,152.7,326.76,148.79,326.32z"/>
	<path class="st15" d="M30.63,313.19c0,0,21.54-21.57,27.15-21.64l30.43,1.82l-9.64,3.18c-4.8,1.19-10.28,2.9-16.12,5.4
		c-8.94,3.83-16.09,8.36-21.48,12.38C37.53,313.95,34.08,313.57,30.63,313.19z"/>
	<path class="st16" d="M22.22,277.83c0,0,36.68,10.17,64.42,4.72s43.09-9.41,67.08-43.51l4.72,0.52c0,0,5.77,0.64,6.29,6.3
		c0.02,0.22,0.03,0.45,0.04,0.68c0.09,6.3-3.23,29.54-3.23,29.54s-32.32,22.1-69.56,19.49c0,0-34.87,0.37-70.91-7.35L22.22,277.83z"
		/>
	<path class="st17" d="M53.17,276.13l-14.08-1.12c-2.16-0.17-3.78-2.06-3.6-4.23L36.35,260c0.17-2.16,2.06-3.78,4.23-3.6l14.08,1.12
		c2.16,0.17,3.78,2.06,3.6,4.23l-0.86,10.79C57.23,274.69,55.34,276.3,53.17,276.13z"/>
	<path class="st18" d="M35.11,295.85l-1.96-0.16c-0.76-0.06-1.33-0.73-1.27-1.49l0.45-5.68c0.06-0.76,0.73-1.33,1.49-1.27l1.96,0.16
		c0.76,0.06,1.33,0.73,1.27,1.49l-0.45,5.68C36.54,295.34,35.87,295.91,35.11,295.85z"/>
	<path class="st18" d="M52.97,297.67l-1.96-0.16c-0.76-0.06-1.33-0.73-1.27-1.49l0.45-5.68c0.06-0.76,0.73-1.33,1.49-1.27l1.96,0.16
		c0.76,0.06,1.33,0.73,1.27,1.49l-0.45,5.68C54.4,297.16,53.73,297.73,52.97,297.67z"/>
	<path class="st18" d="M46.86,297.18l-1.96-0.16c-0.76-0.06-1.33-0.73-1.27-1.49l0.45-5.68c0.06-0.76,0.73-1.33,1.49-1.27l1.96,0.16
		c0.76,0.06,1.33,0.73,1.27,1.49l-0.45,5.68C48.28,296.67,47.62,297.24,46.86,297.18z"/>
	<path class="st18" d="M41.13,296.56l-1.96-0.16c-0.76-0.06-1.33-0.73-1.27-1.49l0.45-5.68c0.06-0.76,0.73-1.33,1.49-1.27l1.96,0.16
		c0.76,0.06,1.33,0.73,1.27,1.49l-0.45,5.68C42.55,296.05,41.89,296.62,41.13,296.56z"/>
	<path class="st18" d="M144.01,307.61l-1.96-0.16c-0.76-0.06-1.33-0.73-1.27-1.49l0.45-5.68c0.06-0.76,0.73-1.33,1.49-1.27
		l1.96,0.16c0.76,0.06,1.33,0.73,1.27,1.49l-0.45,5.68C145.43,307.1,144.77,307.67,144.01,307.61z"/>
	<path class="st18" d="M138.05,307.13l-1.96-0.16c-0.76-0.06-1.33-0.73-1.27-1.49l0.45-5.68c0.06-0.76,0.73-1.33,1.49-1.27
		l1.96,0.16c0.76,0.06,1.33,0.73,1.27,1.49l-0.45,5.68C139.47,306.63,138.81,307.19,138.05,307.13z"/>
	<path class="st18" d="M132.06,306.66l-1.96-0.16c-0.76-0.06-1.33-0.73-1.27-1.49l0.45-5.68c0.06-0.76,0.73-1.33,1.49-1.27
		l1.96,0.16c0.76,0.06,1.33,0.73,1.27,1.49l-0.45,5.68C133.49,306.15,132.82,306.72,132.06,306.66z"/>
	<path class="st18" d="M126.2,306.19l-1.96-0.16c-0.76-0.06-1.33-0.73-1.27-1.49l0.45-5.68c0.06-0.76,0.73-1.33,1.49-1.27l1.96,0.16
		c0.76,0.06,1.33,0.73,1.27,1.49l-0.45,5.68C127.62,305.68,126.96,306.25,126.2,306.19z"/>
	<path class="st18" d="M113.45,304.05l-1.96-0.16c-0.76-0.06-1.33-0.73-1.27-1.49l0.45-5.68c0.06-0.76,0.73-1.33,1.49-1.27
		l1.96,0.16c0.76,0.06,1.33,0.73,1.27,1.49l-0.45,5.68C114.88,303.55,114.21,304.11,113.45,304.05z"/>
	<path class="st18" d="M107.24,303.56l-1.96-0.16c-0.76-0.06-1.33-0.73-1.27-1.49l0.45-5.68c0.06-0.76,0.73-1.33,1.49-1.27
		l1.96,0.16c0.76,0.06,1.33,0.73,1.27,1.49l-0.45,5.68C108.67,303.05,108.01,303.62,107.24,303.56z"/>
	<path class="st18" d="M101.52,303.1l-1.96-0.16c-0.76-0.06-1.33-0.73-1.27-1.49l0.45-5.68c0.06-0.76,0.73-1.33,1.49-1.27l1.96,0.16
		c0.76,0.06,1.33,0.73,1.27,1.49l-0.45,5.68C102.95,302.6,102.29,303.16,101.52,303.1z"/>
	<path class="st18" d="M95.39,302.62l-1.96-0.16c-0.76-0.06-1.33-0.73-1.27-1.49l0.45-5.68c0.06-0.76,0.73-1.33,1.49-1.27l1.96,0.16
		c0.76,0.06,1.33,0.73,1.27,1.49l-0.45,5.68C96.82,302.11,96.15,302.68,95.39,302.62z"/>
	<path class="st18" d="M82.71,301.17l-1.96-0.16c-0.76-0.06-1.33-0.73-1.27-1.49l0.45-5.68c0.06-0.76,0.73-1.33,1.49-1.27l1.96,0.16
		c0.76,0.06,1.33,0.73,1.27,1.49l-0.45,5.68C84.13,300.66,83.47,301.23,82.71,301.17z"/>
	<path class="st18" d="M76.58,300.33l-1.96-0.16c-0.76-0.06-1.33-0.73-1.27-1.49l0.45-5.68c0.06-0.76,0.73-1.33,1.49-1.27l1.96,0.16
		c0.76,0.06,1.33,0.73,1.27,1.49l-0.45,5.68C78.01,299.83,77.35,300.39,76.58,300.33z"/>
	<path class="st18" d="M70.89,299.88l-1.96-0.16c-0.76-0.06-1.33-0.73-1.27-1.49l0.45-5.68c0.06-0.76,0.73-1.33,1.49-1.27l1.96,0.16
		c0.76,0.06,1.33,0.73,1.27,1.49l-0.45,5.68C72.32,299.37,71.65,299.94,70.89,299.88z"/>
	<path class="st18" d="M64.69,299.1l-1.96-0.16c-0.76-0.06-1.33-0.73-1.27-1.49l0.45-5.68c0.06-0.76,0.73-1.33,1.49-1.27l1.96,0.16
		c0.76,0.06,1.33,0.73,1.27,1.49l-0.45,5.68C66.11,298.59,65.45,299.16,64.69,299.1z"/>
	<path class="st19" d="M58.44,232.05l-16.24-1.29l-0.77,9.63l0,0l-0.49,6.14c-0.08,1.03,0.69,1.93,1.72,2.02l4.65,0.37l1.43,1.67
		l1.66-1.42l4.77,0.38c1.03,0.08,1.93-0.69,2.02-1.72l0.03-0.32l0,0L58.44,232.05z"/>
	<polygon class="st20" points="145.12,257.4 142.29,256.98 142.74,253.97 137.49,253.18 137.04,256.19 133.84,255.71 133.05,260.95 
		136.25,261.43 135.8,264.46 141.04,265.25 141.5,262.22 144.33,262.65 	"/>
	<path class="st21" d="M151.33,250.47l0.55-3.65l-6.36-0.96l-0.55,3.65l-3.88-0.58l-0.46,3.08c0.7-0.42,1.49-0.68,2.35-0.68
		c2.68,0,4.85,2.34,4.85,5.22c0,1.34-0.48,2.55-1.25,3.47l3.26,0.49l0.55-3.67l3.44,0.52l0.96-6.36L151.33,250.47z"/>
	<path class="st22" d="M474.38,209.23l-1.47-9.77c0,0-0.83-1.85-2.87-1.66c-2.04,0.19-7.4,1.21-7.4,1.21s-2.62,0.96-2.94,3.19
		s-1.15,3.83-4.21,4.02c-3.06,0.19-16.6,4.47-20.74,8.17c-4.15,3.7-11.04,9.89-9.13,33.38s16.98,25.53,36.26,27.57h5.81
		c0,0,2.94-1.66,5.49,7.6c0,0,1.09,9.13-2.74,9.26c0,0-18.26,3.64-28.79,18.89c0,0-3.26,4.09-2.49,10.72
		c0.77,6.64,3.96,26.68,15.96,35.74c0,0,4.98,6,28.02,3.06c0,0,3.3-0.47,4.53,1.28c1.23,1.74,2.38,3.57,6,2.72
		c3.62-0.85,6.38-1.62,6.38-1.62s2.34-0.81,1.32-4.85c-1.02-4.04-1.32-7.4-1.32-7.4s4.98-18.47-12.77-52.68
		c0,0-10.09-13.53-5.74-39.83C485.87,231.96,476.81,210.89,474.38,209.23z"/>
	<path class="st23" d="M454.04,212.17c-2.75,0.45-13.15,2.5-19.66,11.62c-7.46,10.46-6.76,25.95,2.26,38.1
		c3.25,2.49,6.27,4.05,8.5,5.01c0.95,0.41,7.2,2.96,14.37,3.22c2.33,0.09,5.81-0.09,9.77-1.53c0.57-0.21,1.14-0.42,1.66-0.7
		c3.98-2.13,5.08-8.26,5.49-13.43c1.03-13.26-1.54-27.91-3.15-35.66c-0.18-1.64-0.72-2.8-1.26-3.61
		C469.22,211.01,462.02,209.82,454.04,212.17z"/>
	<path class="st24" d="M451.91,214.47c-2.64,0.08-7.45,0.62-12.09,3.72c-8.95,5.97-10.11,16.62-10.44,19.72
		c-0.34,3.19-1.24,16.2,8.68,25.4c8.03,7.45,20.02,9.52,30.82,5.42c0,0,2.46-1.48,2.59-6.2c0.13-4.72,0.86-27.06-2.9-35.94
		c-1.06-2.49-1.45-4.83-3.38-6.98C461.06,215,454.7,214.51,451.91,214.47z"/>
	<circle class="st1" cx="445.08" cy="251.17" r="7.34"/>
	<circle class="st1" cx="453.74" cy="238.34" r="3.86"/>
	<path class="st23" d="M460.17,302.38c-1.89,1.02-4.47,2.62-7.15,5.02c-2.39,2.14-6.02,5.4-7.68,9.87
		c-2.17,5.88-0.02,11.44,2.4,17.71c1.63,4.21,4.84,10.91,11.28,17.78c1.31,0.74,3.29,1.73,5.83,2.46c5.07,1.45,9.32,1,12.93,0.61
		c1.95-0.21,4.89-0.65,8.34-1.7c2.23-0.68,4.1-1.44,5.56-2.11c0.48-0.35,0.97-0.71,1.39-1.12c3.68-3.64,2.56-10.3,1.68-15.34
		c-0.4-2.28-0.83-3.97-2.33-9c-4.5-15.12-6.24-19.01-8.94-22.89c-2.13-3.07-3.23-4.62-5.19-5.53
		C472.58,295.48,465.25,299.64,460.17,302.38z"/>
	<path class="st24" d="M463.39,300.67c-5.17,2.19-8.99,5.23-11.61,7.86c-3.03,3.04-5.2,5.22-6.44,8.74
		c-2.6,7.41,0.94,14.91,4.49,22.41c1.49,3.14,3.59,6.09,3.59,6.09c0.39,0.58,0.74,1.06,0.98,1.4c13.9,5.19,27.47,4.71,32.56-1.99
		c1.9-2.5,1.05-3.81-4.25-33.18c-1.27-7.06-2.09-11.76-5.79-13.62C473.2,296.51,468.48,298.51,463.39,300.67z"/>
	<circle class="st1" cx="460.08" cy="335.32" r="7.06"/>
	<circle class="st1" cx="469.02" cy="322.64" r="3.57"/>
	<path class="st25" d="M67.13,234.7l4.73,0.53l-0.67,6.05l-1.37-0.15l0.55-4.9L68.37,236l-0.55,4.9l-1.37-0.15L67.13,234.7z"/>
	<path class="st25" d="M72.66,238.35c0.22-1.98,1.46-2.99,3.09-2.8c1.63,0.18,2.62,1.45,2.4,3.42c-0.22,1.98-1.47,3.04-3.1,2.86
		C73.43,241.64,72.44,240.33,72.66,238.35z M76.76,238.81c0.13-1.21-0.31-1.99-1.13-2.08c-0.83-0.09-1.43,0.57-1.56,1.78
		c-0.13,1.21,0.3,2.04,1.13,2.13C76.02,240.73,76.62,240.02,76.76,238.81z"/>
	<path class="st25" d="M78.04,242.06l0.38-1.2c0.08,0.03,0.15,0.06,0.26,0.07c0.3,0.03,0.53-0.09,0.96-1.36
		c0.37-1.1,0.69-2.22,1.03-3.36l3.53,0.39l-0.67,6.05l-1.37-0.15l0.55-4.9l-1.11-0.12c-0.25,0.84-0.48,1.6-0.71,2.38
		c-0.62,1.99-1.18,2.48-2.14,2.37C78.41,242.19,78.22,242.15,78.04,242.06z"/>
	<path class="st25" d="M85.62,236.75l1.35,0.15l-0.24,2.14c-0.08,0.71-0.28,1.55-0.42,2.18l0.04,0l0.75-1.26l1.92-2.83l1.45,0.16
		l-0.67,6.05l-1.35-0.15l0.24-2.15c0.08-0.71,0.28-1.51,0.42-2.17l-0.04,0l-0.75,1.25l-1.92,2.84l-1.45-0.16L85.62,236.75z"/>
	<path class="st25" d="M91.26,240.48c0.22-2.01,1.68-3.02,3.21-2.85c0.78,0.09,1.37,0.52,1.73,0.99l-0.82,0.8
		c-0.27-0.32-0.58-0.55-1.02-0.6c-0.83-0.09-1.57,0.57-1.7,1.78c-0.14,1.24,0.36,2.03,1.24,2.13c0.5,0.06,0.91-0.15,1.25-0.43
		l0.63,0.94c-0.57,0.53-1.27,0.76-2.05,0.67C92.2,243.72,91.04,242.52,91.26,240.48z"/>
	<path d="M63.54,248.92c0.09-0.83,0.71-1.24,1.33-1.17s1.13,0.61,1.03,1.43c-0.09,0.82-0.71,1.24-1.32,1.17
		C63.96,250.28,63.45,249.74,63.54,248.92z M65.31,249.12c0.06-0.5-0.13-0.85-0.49-0.89c-0.36-0.04-0.62,0.27-0.67,0.76
		c-0.06,0.5,0.13,0.85,0.49,0.89C65,249.92,65.25,249.61,65.31,249.12z"/>
	<path d="M66.38,248.94c0.18-1.58,0.84-1.81,1.78-1.84c0.29-0.01,0.41-0.03,0.57-0.08l0.06,0.53c-0.14,0.08-0.35,0.11-0.57,0.11
		c-0.91,0.03-1.14,0.05-1.3,1.48c-0.07,0.64,0.12,1.01,0.53,1.06c0.33,0.04,0.57-0.26,0.62-0.75c0.05-0.48-0.12-0.74-0.46-0.78
		c-0.21-0.02-0.44,0.05-0.67,0.31l0.02-0.4c0.23-0.25,0.55-0.37,0.87-0.33c0.55,0.06,0.93,0.52,0.85,1.26
		c-0.09,0.78-0.63,1.22-1.27,1.15C66.64,250.58,66.27,249.95,66.38,248.94z"/>
	<path d="M69.81,249.66l0.46,0.22l-0.79,0.96l-0.65-0.07L69.81,249.66z M70.53,250.05l-0.37-0.04c-0.49-0.05-1-0.34-0.94-0.92
		s0.53-0.73,1.09-0.67l0.97,0.11L71.02,251l-0.58-0.06L70.53,250.05z M70.58,249.64l0.08-0.75l-0.31-0.03
		c-0.33-0.04-0.52,0.06-0.55,0.3c-0.03,0.24,0.14,0.41,0.47,0.45L70.58,249.64z"/>
	<path d="M71.57,250.82l0.28-0.35c0.2,0.19,0.42,0.28,0.64,0.3c0.3,0.03,0.55-0.08,0.58-0.3s-0.14-0.35-0.47-0.39l-0.37-0.04
		l0.04-0.4l0.32,0.04c0.31,0.03,0.48-0.06,0.5-0.26c0.02-0.2-0.14-0.32-0.41-0.35c-0.25-0.03-0.44,0.01-0.65,0.12l-0.18-0.4
		c0.27-0.14,0.57-0.2,0.92-0.17c0.51,0.06,0.94,0.32,0.89,0.8c-0.02,0.22-0.18,0.43-0.46,0.49l0,0.02c0.29,0.11,0.47,0.31,0.43,0.66
		c-0.05,0.48-0.59,0.7-1.14,0.64C72.15,251.19,71.85,251.09,71.57,250.82z"/>
	<path d="M74.05,250.67c0.06-0.53,0.53-0.76,1.56-0.75c0.02-0.27-0.06-0.5-0.4-0.54c-0.25-0.03-0.49,0.06-0.72,0.17l-0.17-0.41
		c0.29-0.14,0.66-0.26,1.05-0.21c0.62,0.07,0.88,0.48,0.81,1.18l-0.16,1.47l-0.48-0.05l-0.01-0.28l-0.02,0
		c-0.24,0.16-0.51,0.28-0.81,0.25C74.27,251.43,74,251.1,74.05,250.67z M75.51,250.83l0.06-0.56c-0.68,0.01-0.93,0.16-0.95,0.41
		c-0.02,0.22,0.11,0.33,0.32,0.35C75.14,251.06,75.3,250.98,75.51,250.83z"/>
	<path d="M77.4,249.67l-0.78-0.09l0.05-0.46l2.14,0.24l-0.05,0.46l-0.78-0.09l-0.22,2.02l-0.58-0.06L77.4,249.67z"/>
	<path d="M78.93,250.63c0.09-0.81,0.71-1.24,1.29-1.18c0.67,0.07,0.97,0.6,0.89,1.29c-0.01,0.11-0.04,0.22-0.06,0.28l-1.57-0.18
		c0,0.45,0.25,0.73,0.65,0.77c0.21,0.02,0.4-0.02,0.6-0.12l0.16,0.38c-0.25,0.13-0.57,0.21-0.88,0.17
		C79.32,251.99,78.83,251.45,78.93,250.63z M80.62,250.58c0.04-0.38-0.1-0.63-0.44-0.67c-0.29-0.03-0.57,0.16-0.66,0.55
		L80.62,250.58z"/>
	<path d="M81.18,252.15l0.16-0.52c0.04,0.01,0.07,0.03,0.12,0.03c0.15,0.02,0.27-0.1,0.35-0.41c0.12-0.5,0.23-1.01,0.35-1.52
		l1.68,0.19l-0.28,2.48l-0.58-0.06l0.22-2.02l-0.64-0.07c-0.09,0.4-0.19,0.81-0.29,1.22c-0.14,0.54-0.42,0.81-0.84,0.76
		C81.33,252.21,81.26,252.19,81.18,252.15z"/>
	<path d="M84.57,250l0.58,0.06l-0.09,0.85l0.37,0.04c0.6,0.07,1,0.34,0.94,0.92c-0.07,0.59-0.52,0.77-1.12,0.71l-0.95-0.11
		L84.57,250z M85.26,252.13c0.34,0.04,0.52-0.06,0.54-0.32c0.03-0.25-0.12-0.38-0.46-0.42l-0.33-0.04l-0.08,0.74L85.26,252.13z"/>
	<path d="M87.11,250.28l0.58,0.06l-0.11,0.95l0.99,0.11l0.11-0.95l0.58,0.06L88.99,253l-0.58-0.06l0.11-1.02l-0.99-0.11l-0.11,1.02
		l-0.58-0.06L87.11,250.28z"/>
	<path d="M89.7,251.83c0.09-0.83,0.71-1.24,1.33-1.17c0.62,0.07,1.13,0.61,1.03,1.43c-0.09,0.82-0.71,1.24-1.32,1.17
		S89.61,252.65,89.7,251.83z M91.46,252.02c0.06-0.5-0.13-0.85-0.49-0.89c-0.36-0.04-0.62,0.27-0.67,0.76
		c-0.06,0.5,0.13,0.85,0.49,0.89C91.15,252.82,91.4,252.52,91.46,252.02z"/>
	<path d="M92.77,250.91l1.63,0.18l-0.05,0.46l-1.05-0.12l-0.22,2.02l-0.58-0.06L92.77,250.91z"/>
	<path d="M94.41,252.35c0.09-0.83,0.71-1.24,1.32-1.17c0.62,0.07,1.13,0.61,1.04,1.43c-0.09,0.82-0.71,1.24-1.32,1.17
		S94.32,253.17,94.41,252.35z M96.17,252.55c0.06-0.5-0.13-0.85-0.49-0.89c-0.36-0.04-0.62,0.27-0.67,0.76
		c-0.06,0.5,0.13,0.85,0.49,0.89C95.86,253.35,96.11,253.04,96.17,252.55z"/>
	<path d="M98.49,251.55l0.67,0.07l0.29,1.05c0.04,0.21,0.09,0.41,0.13,0.6l0.02,0c0.09-0.18,0.18-0.36,0.27-0.56l0.49-0.96
		l0.66,0.07l-0.28,2.48l-0.52-0.06l0.1-0.87c0.03-0.24,0.12-0.69,0.17-0.96l-0.02,0c-0.09,0.2-0.21,0.43-0.31,0.62l-0.48,0.93
		l-0.34-0.04l-0.28-1.01c-0.05-0.21-0.12-0.46-0.16-0.67l-0.02,0c-0.01,0.27-0.02,0.73-0.04,0.97l-0.1,0.87l-0.51-0.06L98.49,251.55
		z"/>
	<path d="M101.45,253.13c0.09-0.81,0.71-1.24,1.29-1.18c0.67,0.07,0.97,0.6,0.89,1.29c-0.01,0.11-0.04,0.22-0.06,0.28l-1.58-0.17
		c0,0.45,0.25,0.73,0.66,0.77c0.21,0.02,0.4-0.02,0.6-0.12l0.16,0.38c-0.25,0.13-0.57,0.21-0.88,0.17
		C101.84,254.49,101.36,253.95,101.45,253.13z M103.14,253.08c0.04-0.38-0.1-0.63-0.44-0.67c-0.29-0.03-0.57,0.16-0.66,0.55
		L103.14,253.08z"/>
	<path d="M104.2,255.57l-0.5-0.06l0.05-0.96l0.04-0.38l2.66,0.3l-0.04,0.38l-0.16,0.95l-0.5-0.06l0.1-0.87l-1.54-0.17L104.2,255.57z
		 M105.66,252.81l-0.66-0.07l-0.16,0.69c-0.2,0.86-0.51,1.12-0.88,1.11l-0.04-0.35c0.13-0.05,0.25-0.2,0.43-0.94l0.24-1.03l1.7,0.19
		l-0.26,2.31l-0.58-0.06L105.66,252.81z"/>
	<path d="M107.13,252.51l0.56,0.06l-0.09,0.86c-0.03,0.26-0.09,0.58-0.15,0.89l0.02,0c0.1-0.14,0.27-0.35,0.37-0.49l0.92-1.14
		l0.53,0.06l-0.28,2.48l-0.56-0.06l0.09-0.86c0.03-0.26,0.09-0.58,0.15-0.89l-0.02,0c-0.1,0.14-0.27,0.35-0.36,0.49l-0.93,1.14
		l-0.53-0.06L107.13,252.51z"/>
	<path d="M110.02,252.83l0.58,0.06l-0.22,2.02l0.92,0.1l0.22-2.02l0.58,0.06l-0.28,2.48l-2.08-0.23L110.02,252.83z M111.65,255.52
		l-0.17-0.02l0.05-0.46l0.73,0.08l-0.04,0.38l-0.16,0.95l-0.5-0.06L111.65,255.52z"/>
	<path d="M112.92,253.15l0.56,0.06l-0.09,0.86c-0.03,0.26-0.09,0.58-0.15,0.89l0.02,0c0.1-0.14,0.27-0.35,0.37-0.49l0.92-1.14
		l0.53,0.06l-0.28,2.48l-0.56-0.06l0.09-0.86c0.03-0.26,0.09-0.58,0.15-0.89l-0.02,0c-0.1,0.14-0.26,0.35-0.36,0.49l-0.93,1.14
		l-0.53-0.06L112.92,253.15z"/>
	<path d="M115.82,253.47l0.58,0.06l-0.11,0.95l0.99,0.11l0.11-0.95l0.58,0.06l-0.28,2.48l-0.58-0.06l0.11-1.02l-0.99-0.11
		l-0.11,1.02l-0.58-0.06L115.82,253.47z"/>
	<path d="M118.41,255.02c0.09-0.83,0.73-1.24,1.39-1.16c0.32,0.03,0.53,0.18,0.7,0.36l-0.33,0.35c-0.12-0.13-0.24-0.21-0.39-0.23
		c-0.4-0.04-0.71,0.26-0.77,0.75c-0.06,0.5,0.18,0.85,0.57,0.9c0.19,0.02,0.38-0.05,0.54-0.16l0.19,0.41
		c-0.25,0.18-0.56,0.25-0.84,0.22C118.78,256.38,118.31,255.84,118.41,255.02z"/>
	<path d="M121.04,254.05l0.58,0.06l-0.11,0.97l0.66,0.07l0.81,1.62l-0.64-0.07l-0.51-1.12l-0.37-0.04l-0.12,1.05l-0.58-0.06
		L121.04,254.05z M121.75,255.34l0.41-0.69c0.24-0.41,0.46-0.48,0.78-0.45c0.06,0.01,0.12,0.02,0.17,0.05l-0.15,0.53
		c-0.03-0.01-0.05-0.02-0.09-0.03c-0.12-0.01-0.23,0.02-0.37,0.26l-0.28,0.48L121.75,255.34z"/>
	<path d="M123.26,255.56c0.09-0.83,0.71-1.24,1.32-1.17s1.13,0.61,1.04,1.43c-0.09,0.82-0.71,1.24-1.32,1.17
		S123.17,256.38,123.26,255.56z M125.02,255.75c0.06-0.5-0.13-0.85-0.49-0.89c-0.36-0.04-0.62,0.27-0.67,0.76
		c-0.06,0.5,0.13,0.85,0.49,0.89C124.71,256.55,124.96,256.25,125.02,255.75z"/>
	<path d="M126.33,254.64l1.63,0.18l-0.05,0.46l-1.05-0.12l-0.22,2.02l-0.58-0.06L126.33,254.64z"/>
	<path d="M127.97,256.08c0.09-0.83,0.71-1.24,1.32-1.17s1.13,0.61,1.04,1.43c-0.09,0.82-0.71,1.24-1.32,1.17
		S127.88,256.9,127.97,256.08z M129.73,256.28c0.06-0.5-0.13-0.85-0.49-0.89s-0.62,0.27-0.67,0.76c-0.06,0.5,0.13,0.85,0.49,0.89
		S129.67,256.77,129.73,256.28z"/>
	<path d="M62.89,255.48c0.15-1.31,1.1-1.97,2.09-1.86c0.51,0.06,0.89,0.34,1.13,0.64l-0.53,0.52c-0.18-0.21-0.38-0.36-0.66-0.39
		c-0.54-0.06-1.02,0.37-1.11,1.16c-0.09,0.81,0.24,1.32,0.81,1.39c0.32,0.04,0.6-0.09,0.81-0.28l0.41,0.61
		c-0.37,0.34-0.83,0.49-1.34,0.44C63.5,257.6,62.74,256.81,62.89,255.48z"/>
	<path d="M67.44,254.73l-1.09-0.12l0.08-0.75l3.06,0.34l-0.08,0.75l-1.09-0.12l-0.36,3.2l-0.89-0.1L67.44,254.73z"/>
	<path d="M70.12,254.27l1.35,0.15c0.87,0.1,1.53,0.48,1.43,1.44c-0.1,0.93-0.86,1.26-1.69,1.17l-0.49-0.05l-0.15,1.34l-0.89-0.1
		L70.12,254.27z M71.23,256.31c0.49,0.05,0.75-0.14,0.79-0.55c0.05-0.41-0.2-0.59-0.68-0.64l-0.41-0.05l-0.13,1.19L71.23,256.31z"/>
	<path d="M74.16,254.72l1.07,0.12l0.8,4.08l-0.94-0.1l-0.29-2.05c-0.07-0.41-0.12-0.88-0.18-1.31l-0.02,0
		c-0.14,0.41-0.3,0.86-0.45,1.24l-0.74,1.94l-0.91-0.1L74.16,254.72z M73.48,256.98l1.9,0.21l-0.08,0.69l-1.9-0.21L73.48,256.98z"/>
	<path d="M77.34,257.01l-0.81-2.03l0.99,0.11l0.26,0.78c0.07,0.19,0.13,0.4,0.22,0.66l0.02,0c0.12-0.24,0.22-0.43,0.32-0.6l0.4-0.71
		l0.95,0.11l-1.24,1.84l0.87,2.11l-0.99-0.11l-0.3-0.85c-0.08-0.21-0.14-0.43-0.22-0.68l-0.02,0c-0.12,0.23-0.23,0.43-0.34,0.62
		l-0.46,0.76l-0.95-0.11L77.34,257.01z"/>
	<path d="M79.88,257.33c0.14-1.29,0.95-1.95,2.02-1.83c1.06,0.12,1.71,0.94,1.57,2.23c-0.14,1.29-0.96,1.98-2.02,1.86
		C80.38,259.47,79.74,258.62,79.88,257.33z M82.55,257.63c0.09-0.79-0.2-1.29-0.74-1.35c-0.54-0.06-0.93,0.37-1.02,1.16
		c-0.09,0.79,0.2,1.33,0.73,1.39C82.07,258.88,82.47,258.42,82.55,257.63z"/>
	<path d="M84.43,255.86l1.35,0.15c0.82,0.09,1.43,0.39,1.35,1.14c-0.04,0.35-0.28,0.71-0.61,0.79l0,0.02
		c0.39,0.15,0.67,0.48,0.61,1.01c-0.09,0.8-0.81,1.09-1.67,0.99l-1.46-0.16L84.43,255.86z M85.46,259.27
		c0.49,0.05,0.76-0.09,0.8-0.45c0.04-0.35-0.19-0.51-0.68-0.57l-0.5-0.06l-0.11,1.02L85.46,259.27z M85.56,257.58
		c0.43,0.05,0.64-0.11,0.68-0.4c0.03-0.3-0.16-0.44-0.57-0.49l-0.42-0.05l-0.1,0.89L85.56,257.58z"/>
	<path d="M88.83,256.35l1.07,0.12l0.8,4.08l-0.94-0.1l-0.29-2.06c-0.07-0.41-0.12-0.88-0.18-1.31l-0.02,0
		c-0.14,0.41-0.3,0.86-0.45,1.24l-0.74,1.94l-0.91-0.1L88.83,256.35z M88.15,258.61l1.9,0.21l-0.08,0.69l-1.9-0.21L88.15,258.61z"/>
	<path d="M91.56,256.65l0.89,0.1l-0.17,1.52l1.36,0.15l0.17-1.52l0.89,0.1l-0.44,3.94l-0.89-0.1l0.18-1.65l-1.36-0.15l-0.18,1.65
		l-0.89-0.1L91.56,256.65z"/>
	<path d="M95.64,257.11l0.88,0.1l-0.15,1.39c-0.05,0.46-0.19,1.01-0.27,1.42l0.02,0l0.48-0.82l1.25-1.85l0.94,0.1l-0.44,3.94
		l-0.88-0.1l0.16-1.4c0.05-0.46,0.18-0.99,0.27-1.42l-0.02,0l-0.48,0.82l-1.25,1.85l-0.94-0.1L95.64,257.11z"/>
	<path d="M100.53,259.49l0.56,0.54l-1.16,1.55l-1.02-0.11L100.53,259.49z M101.37,260.3l-0.55-0.06c-0.81-0.1-1.46-0.56-1.36-1.46
		c0.1-0.94,0.82-1.15,1.66-1.06l1.42,0.16l-0.44,3.94l-0.89-0.1L101.37,260.3z M101.45,259.59l0.12-1.11l-0.46-0.05
		c-0.47-0.05-0.74,0.05-0.78,0.44c-0.04,0.39,0.19,0.62,0.66,0.67L101.45,259.59z"/>
	<path class="st26" d="M267.59,102.46l5.13,0.57l-0.73,6.57l-1.49-0.17l0.59-5.33l-2.16-0.24l-0.59,5.33l-1.49-0.17L267.59,102.46z"
		/>
	<path class="st26" d="M273.6,106.42c0.24-2.15,1.59-3.24,3.36-3.05c1.77,0.2,2.85,1.57,2.61,3.71c-0.24,2.15-1.59,3.3-3.37,3.1
		C274.43,109.99,273.36,108.57,273.6,106.42z M278.05,106.92c0.15-1.32-0.33-2.16-1.23-2.26c-0.9-0.1-1.55,0.62-1.7,1.93
		s0.33,2.22,1.22,2.32C277.25,109.01,277.9,108.24,278.05,106.92z"/>
	<path class="st26" d="M279.44,110.45l0.42-1.31c0.08,0.03,0.16,0.06,0.28,0.07c0.33,0.04,0.58-0.1,1.04-1.47
		c0.4-1.2,0.75-2.42,1.12-3.65l3.83,0.43l-0.73,6.57l-1.49-0.17l0.59-5.33l-1.2-0.13c-0.27,0.92-0.52,1.74-0.77,2.59
		c-0.67,2.16-1.28,2.7-2.33,2.58C279.85,110.6,279.65,110.55,279.44,110.45z"/>
	<path class="st26" d="M287.68,104.69l1.47,0.16l-0.26,2.32c-0.09,0.77-0.31,1.68-0.46,2.37l0.04,0l0.81-1.37l2.09-3.08l1.57,0.17
		l-0.73,6.57l-1.47-0.16l0.26-2.33c0.09-0.77,0.3-1.64,0.45-2.36l-0.04,0l-0.81,1.36l-2.09,3.09l-1.57-0.17L287.68,104.69z"/>
	<path class="st26" d="M293.82,108.74c0.24-2.18,1.83-3.29,3.49-3.1c0.85,0.09,1.49,0.57,1.88,1.07l-0.89,0.87
		c-0.3-0.34-0.63-0.6-1.1-0.65c-0.9-0.1-1.7,0.62-1.85,1.93c-0.15,1.35,0.39,2.21,1.35,2.31c0.54,0.06,0.99-0.16,1.35-0.47
		l0.68,1.02c-0.62,0.57-1.38,0.82-2.23,0.73C294.84,112.26,293.57,110.95,293.82,108.74z"/>
	<path class="st26" d="M300.88,110.9c0.14-1.26,1.11-1.89,2.06-1.78c0.96,0.11,1.76,0.93,1.62,2.19c-0.14,1.26-1.11,1.88-2.07,1.78
		C301.54,112.98,300.74,112.15,300.88,110.9z M303.41,111.18c0.07-0.66-0.11-1.11-0.58-1.16c-0.46-0.05-0.74,0.35-0.81,1
		c-0.07,0.65,0.11,1.1,0.57,1.15C303.06,112.23,303.34,111.83,303.41,111.18z"/>
	<path class="st26" d="M305.21,110.9c0.25-2.27,1.29-2.68,2.72-2.72c0.46-0.01,0.68-0.04,0.93-0.12l0.11,1
		c-0.22,0.13-0.57,0.18-0.92,0.19c-1.37,0.03-1.57,0.04-1.79,2.04c-0.1,0.87,0.15,1.32,0.65,1.38c0.41,0.05,0.68-0.33,0.75-0.96
		c0.08-0.68-0.14-0.95-0.54-1c-0.26-0.03-0.56,0.06-0.84,0.38l0.03-0.72c0.3-0.35,0.77-0.5,1.23-0.45c0.8,0.09,1.4,0.75,1.27,1.91
		c-0.13,1.17-0.97,1.85-1.99,1.74C305.61,113.43,305.04,112.45,305.21,110.9z"/>
	<path class="st26" d="M310.41,112.02l0.89,0.41l-1.1,1.42l-1.25-0.14L310.41,112.02z M311.51,112.75l-0.42-0.05
		c-0.75-0.08-1.61-0.54-1.5-1.48c0.1-0.94,0.84-1.17,1.72-1.08l1.61,0.18l-0.42,3.78l-1.12-0.12L311.51,112.75z M311.59,111.98
		l0.11-0.97l-0.35-0.04c-0.41-0.04-0.63,0.08-0.66,0.39c-0.03,0.3,0.15,0.53,0.56,0.57L311.59,111.98z"/>
	<path class="st26" d="M313.23,113.82l0.52-0.66c0.29,0.25,0.62,0.38,0.89,0.41c0.4,0.04,0.72-0.08,0.75-0.35
		c0.03-0.26-0.15-0.39-0.54-0.44l-0.6-0.07l0.08-0.74l0.53,0.06c0.35,0.04,0.55-0.07,0.57-0.3c0.03-0.23-0.16-0.38-0.53-0.42
		c-0.33-0.04-0.61,0-0.92,0.16l-0.33-0.77c0.44-0.22,0.92-0.29,1.43-0.24c0.82,0.09,1.53,0.5,1.44,1.26
		c-0.04,0.31-0.26,0.64-0.69,0.72l0,0.03c0.45,0.17,0.7,0.47,0.64,0.98c-0.08,0.76-0.97,1.07-1.82,0.98
		C314.14,114.38,313.68,114.23,313.23,113.82z"/>
	<path class="st26" d="M317.05,113.55c0.09-0.8,0.77-1.16,2.29-1.15c0.01-0.33-0.13-0.57-0.54-0.61c-0.32-0.04-0.65,0.06-1.04,0.23
		l-0.32-0.78c0.51-0.24,1.08-0.38,1.67-0.32c0.97,0.11,1.44,0.72,1.31,1.88l-0.24,2.16l-0.91-0.1l-0.04-0.4l-0.03,0
		c-0.35,0.24-0.73,0.4-1.16,0.36C317.36,114.74,316.98,114.18,317.05,113.55z M319.19,113.73l0.07-0.66
		c-0.81,0.02-1.09,0.22-1.13,0.5c-0.03,0.24,0.13,0.38,0.39,0.41C318.78,114.02,318.97,113.91,319.19,113.73z"/>
	<path class="st26" d="M322.14,112.23l-1.12-0.12l0.1-0.88l3.35,0.37l-0.1,0.88l-1.12-0.12l-0.32,2.9l-1.12-0.12L322.14,112.23z"/>
	<path class="st26" d="M324.6,113.54c0.14-1.23,1.1-1.89,2.01-1.79c1.08,0.12,1.53,0.96,1.41,2c-0.02,0.2-0.07,0.4-0.1,0.49
		l-2.27-0.25c0.04,0.56,0.39,0.85,0.89,0.91c0.29,0.03,0.55-0.03,0.85-0.16l0.3,0.72c-0.42,0.23-0.94,0.33-1.39,0.28
		C325.22,115.61,324.46,114.79,324.6,113.54z M327.09,113.39c0.05-0.42-0.1-0.74-0.55-0.79c-0.35-0.04-0.69,0.16-0.82,0.63
		L327.09,113.39z"/>
	<path class="st26" d="M328.12,115.85l0.3-0.99c0.06,0.02,0.11,0.04,0.19,0.05c0.2,0.02,0.37-0.11,0.47-0.52
		c0.18-0.73,0.34-1.48,0.51-2.22l2.79,0.31l-0.42,3.78l-1.12-0.12l0.32-2.9l-0.78-0.09c-0.13,0.55-0.26,1.11-0.4,1.66
		c-0.22,0.83-0.69,1.25-1.42,1.17C328.38,115.96,328.25,115.92,328.12,115.85z"/>
	<path class="st26" d="M333.36,112.59l1.12,0.12l-0.13,1.21l0.43,0.05c0.92,0.1,1.58,0.51,1.48,1.46c-0.11,0.97-0.85,1.23-1.77,1.12
		l-1.55-0.17L333.36,112.59z M334.53,115.69c0.4,0.04,0.62-0.08,0.65-0.39c0.03-0.29-0.14-0.46-0.55-0.51l-0.37-0.04l-0.1,0.89
		L334.53,115.69z"/>
	<path class="st26" d="M337.3,113.03l1.12,0.12l-0.15,1.37l1.21,0.13l0.15-1.37l1.12,0.12l-0.42,3.78l-1.12-0.12l0.16-1.44
		l-1.21-0.13l-0.16,1.44l-1.12-0.12L337.3,113.03z"/>
	<path class="st26" d="M341.31,115.39c0.14-1.26,1.11-1.89,2.06-1.78c0.96,0.11,1.76,0.93,1.62,2.19c-0.14,1.26-1.11,1.88-2.07,1.78
		C341.98,117.47,341.17,116.65,341.31,115.39z M343.85,115.67c0.07-0.66-0.11-1.11-0.58-1.16c-0.46-0.05-0.74,0.35-0.81,1
		c-0.07,0.65,0.11,1.1,0.57,1.15C343.5,116.73,343.78,116.33,343.85,115.67z"/>
	<path class="st26" d="M345.98,113.99l2.6,0.29l-0.1,0.88L347,115l-0.32,2.9l-1.12-0.12L345.98,113.99z"/>
	<path class="st26" d="M348.58,116.2c0.14-1.26,1.11-1.89,2.06-1.78c0.96,0.11,1.76,0.93,1.62,2.19c-0.14,1.26-1.11,1.88-2.07,1.78
		C349.25,118.28,348.45,117.46,348.58,116.2z M351.12,116.48c0.07-0.66-0.11-1.11-0.58-1.16c-0.46-0.05-0.74,0.35-0.81,1
		c-0.07,0.65,0.11,1.1,0.57,1.15C350.77,117.53,351.05,117.14,351.12,116.48z"/>
	<path class="st26" d="M265.65,117.32l1.28,0.14l0.33,1.35c0.06,0.32,0.12,0.6,0.17,0.88l0.03,0c0.12-0.26,0.24-0.52,0.36-0.82
		l0.59-1.25l1.27,0.14l-0.42,3.78l-1-0.11l0.11-0.97c0.04-0.41,0.21-1.2,0.3-1.62l-0.03,0c-0.14,0.32-0.35,0.71-0.49,1.02
		l-0.57,1.17l-0.61-0.07l-0.32-1.27c-0.07-0.33-0.18-0.77-0.25-1.1l-0.03,0c-0.01,0.43-0.02,1.24-0.06,1.65l-0.11,0.97l-0.98-0.11
		L265.65,117.32z"/>
	<path class="st26" d="M270.26,119.75c0.14-1.23,1.1-1.89,2-1.79c1.08,0.12,1.53,0.96,1.41,2c-0.02,0.2-0.07,0.4-0.1,0.49
		l-2.26-0.25c0.04,0.56,0.39,0.85,0.89,0.91c0.29,0.03,0.55-0.03,0.85-0.16l0.3,0.72c-0.42,0.23-0.94,0.33-1.39,0.28
		C270.87,121.82,270.12,121,270.26,119.75z M272.74,119.6c0.05-0.42-0.1-0.74-0.55-0.79c-0.35-0.04-0.69,0.16-0.82,0.63
		L272.74,119.6z"/>
	<path class="st26" d="M274.74,123.49l-0.96-0.11l0.06-1.47l0.08-0.74l4.28,0.48l-0.08,0.74l-0.27,1.44l-0.97-0.11l0.15-1.31
		l-2.14-0.24L274.74,123.49z M276.69,119.44l-0.81-0.09l-0.19,0.87c-0.28,1.26-0.83,1.71-1.52,1.65l-0.02-0.66
		c0.19-0.08,0.35-0.3,0.6-1.35l0.34-1.48l2.82,0.31l-0.38,3.46l-1.12-0.12L276.69,119.44z"/>
	<path class="st26" d="M279.1,118.81l1.08,0.12l-0.12,1.05c-0.04,0.38-0.15,0.88-0.24,1.33l0.02,0c0.15-0.22,0.39-0.53,0.53-0.74
		l1.16-1.49l1.02,0.11l-0.42,3.78l-1.08-0.12l0.12-1.05c0.04-0.38,0.15-0.87,0.25-1.33l-0.03,0c-0.15,0.22-0.38,0.54-0.52,0.75
		l-1.17,1.49l-1.02-0.11L279.1,118.81z"/>
	<path class="st26" d="M283.55,119.31l1.12,0.12l-0.32,2.9l1.11,0.12l0.32-2.9l1.12,0.12l-0.42,3.78l-3.36-0.37L283.55,119.31z
		 M286.01,123.41l-0.24-0.03l0.1-0.88l1.31,0.15l-0.08,0.74l-0.27,1.44l-0.97-0.11L286.01,123.41z"/>
	<path class="st26" d="M288.09,119.81l1.08,0.12l-0.12,1.05c-0.04,0.38-0.15,0.88-0.24,1.33l0.02,0c0.15-0.22,0.39-0.53,0.53-0.74
		l1.16-1.49l1.02,0.11l-0.42,3.78l-1.08-0.12l0.12-1.05c0.04-0.38,0.15-0.87,0.25-1.33l-0.03,0c-0.15,0.22-0.38,0.54-0.52,0.75
		l-1.17,1.49l-1.02-0.11L288.09,119.81z"/>
	<path class="st26" d="M292.54,120.31l1.12,0.12l-0.15,1.37l1.21,0.13l0.15-1.37l1.12,0.12l-0.42,3.78l-1.12-0.12l0.16-1.44
		l-1.21-0.13l-0.16,1.44l-1.12-0.12L292.54,120.31z"/>
	<path class="st26" d="M296.55,122.67c0.14-1.26,1.15-1.88,2.19-1.77c0.46,0.05,0.8,0.26,1.06,0.53l-0.61,0.66
		c-0.16-0.17-0.31-0.26-0.49-0.28c-0.54-0.06-0.93,0.33-1,0.98c-0.07,0.65,0.24,1.12,0.73,1.17c0.25,0.03,0.5-0.07,0.71-0.2
		l0.36,0.78c-0.4,0.28-0.89,0.36-1.3,0.31C297.14,124.74,296.41,123.93,296.55,122.67z"/>
	<path class="st26" d="M300.54,121.2l1.12,0.12l-0.15,1.39l0.96,0.11l1.27,2.56l-1.23-0.14l-0.7-1.61l-0.4-0.04l-0.17,1.51
		l-1.12-0.12L300.54,121.2z M301.66,123.14l0.64-1.04c0.37-0.61,0.74-0.72,1.29-0.66c0.11,0.01,0.21,0.04,0.3,0.09l-0.29,1.01
		c-0.04-0.02-0.09-0.04-0.14-0.04c-0.19-0.02-0.34,0.02-0.52,0.33l-0.36,0.62L301.66,123.14z"/>
	<path class="st26" d="M304.08,123.51c0.14-1.26,1.11-1.89,2.06-1.78c0.96,0.11,1.76,0.93,1.62,2.19c-0.14,1.26-1.11,1.88-2.06,1.78
		C304.75,125.59,303.94,124.76,304.08,123.51z M306.62,123.79c0.07-0.66-0.11-1.11-0.57-1.16c-0.46-0.05-0.74,0.35-0.81,1
		c-0.07,0.65,0.11,1.1,0.57,1.15C306.27,124.84,306.55,124.45,306.62,123.79z"/>
	<path class="st26" d="M308.75,122.11l2.6,0.29l-0.1,0.88l-1.48-0.16l-0.32,2.9l-1.12-0.12L308.75,122.11z"/>
	<path class="st26" d="M311.36,124.32c0.14-1.26,1.11-1.89,2.06-1.78c0.96,0.11,1.76,0.93,1.62,2.19c-0.14,1.26-1.11,1.88-2.06,1.78
		C312.02,126.4,311.22,125.57,311.36,124.32z M313.89,124.6c0.07-0.66-0.11-1.11-0.57-1.16c-0.46-0.05-0.74,0.35-0.81,1
		c-0.07,0.66,0.11,1.1,0.57,1.16C313.54,125.65,313.82,125.25,313.89,124.6z"/>
	<path class="st26" d="M317.46,123.62c0.24-2.18,1.83-3.28,3.49-3.1c0.85,0.09,1.49,0.57,1.88,1.07l-0.89,0.87
		c-0.3-0.34-0.63-0.6-1.1-0.65c-0.9-0.1-1.7,0.62-1.85,1.93c-0.15,1.35,0.39,2.21,1.35,2.31c0.54,0.06,0.99-0.16,1.35-0.47
		l0.68,1.02c-0.62,0.57-1.38,0.82-2.23,0.73C318.48,127.14,317.21,125.83,317.46,123.62z"/>
	<path class="st26" d="M325.04,122.36l-1.81-0.2l0.14-1.25l5.1,0.57l-0.14,1.25l-1.81-0.2l-0.59,5.33l-1.49-0.17L325.04,122.36z"/>
	<path class="st26" d="M329.5,121.59l2.26,0.25c1.45,0.16,2.55,0.81,2.38,2.41c-0.17,1.54-1.43,2.1-2.82,1.94l-0.81-0.09l-0.25,2.23
		l-1.49-0.17L329.5,121.59z M331.36,125c0.82,0.09,1.24-0.23,1.32-0.91c0.08-0.69-0.34-0.98-1.14-1.07l-0.69-0.08l-0.22,1.98
		L331.36,125z"/>
	<path class="st26" d="M336.23,122.34l1.78,0.2l1.33,6.8l-1.57-0.17l-0.49-3.42c-0.11-0.68-0.2-1.47-0.3-2.18l-0.04,0
		c-0.24,0.68-0.5,1.43-0.75,2.06l-1.23,3.23l-1.52-0.17L336.23,122.34z M335.1,126.12l3.16,0.35l-0.13,1.15l-3.16-0.35L335.1,126.12
		z"/>
	<path class="st26" d="M341.53,126.16l-1.35-3.38l1.66,0.18l0.43,1.31c0.11,0.32,0.22,0.67,0.36,1.11l0.04,0
		c0.2-0.4,0.37-0.72,0.54-1.01l0.66-1.19l1.59,0.18l-2.07,3.07l1.45,3.51l-1.66-0.18l-0.5-1.41c-0.13-0.36-0.24-0.71-0.37-1.14
		l-0.04,0c-0.2,0.39-0.39,0.71-0.57,1.03l-0.76,1.27l-1.59-0.18L341.53,126.16z"/>
	<path class="st26" d="M345.77,126.7c0.24-2.15,1.59-3.24,3.36-3.05c1.77,0.2,2.85,1.57,2.61,3.71c-0.24,2.15-1.6,3.3-3.37,3.1
		C346.6,130.27,345.53,128.85,345.77,126.7z M350.22,127.2c0.15-1.32-0.33-2.16-1.23-2.26c-0.9-0.1-1.55,0.62-1.69,1.93
		c-0.15,1.32,0.33,2.22,1.22,2.32C349.42,129.29,350.07,128.51,350.22,127.2z"/>
	<path class="st26" d="M353.35,124.24l2.25,0.25c1.36,0.15,2.38,0.64,2.24,1.9c-0.07,0.59-0.46,1.18-1.02,1.32l0,0.04
		c0.65,0.25,1.12,0.8,1.02,1.68c-0.15,1.34-1.35,1.81-2.78,1.65l-2.44-0.27L353.35,124.24z M355.06,129.93
		c0.81,0.09,1.26-0.15,1.33-0.75c0.06-0.58-0.32-0.86-1.14-0.95l-0.83-0.09l-0.19,1.7L355.06,129.93z M355.23,127.12
		c0.72,0.08,1.07-0.19,1.13-0.67c0.06-0.51-0.26-0.74-0.95-0.82l-0.71-0.08l-0.17,1.49L355.23,127.12z"/>
	<path class="st26" d="M360.67,125.06l1.78,0.2l1.33,6.8l-1.57-0.17l-0.49-3.42c-0.11-0.68-0.2-1.47-0.3-2.18l-0.04,0
		c-0.24,0.68-0.5,1.43-0.75,2.06l-1.23,3.23l-1.52-0.17L360.67,125.06z M359.54,128.83l3.16,0.35l-0.13,1.15l-3.16-0.35
		L359.54,128.83z"/>
	<path class="st26" d="M365.23,125.57l1.49,0.17l-0.28,2.53l2.27,0.25l0.28-2.53l1.49,0.17l-0.73,6.57l-1.49-0.17l0.31-2.74
		l-2.27-0.25l-0.31,2.74l-1.48-0.17L365.23,125.57z"/>
	<path class="st26" d="M372.03,126.32l1.47,0.16l-0.26,2.32c-0.09,0.77-0.31,1.68-0.46,2.37l0.04,0l0.81-1.37l2.09-3.08l1.57,0.17
		l-0.73,6.57l-1.47-0.16l0.26-2.33c0.09-0.77,0.3-1.64,0.46-2.36l-0.04,0l-0.81,1.36l-2.09,3.09l-1.57-0.17L372.03,126.32z"/>
	<path class="st26" d="M380.17,130.3l0.92,0.9l-1.94,2.58l-1.7-0.19L380.17,130.3z M381.56,131.64l-0.92-0.1
		c-1.36-0.16-2.43-0.93-2.26-2.44c0.17-1.56,1.37-1.92,2.76-1.76l2.37,0.26l-0.73,6.57l-1.49-0.17L381.56,131.64z M381.69,130.46
		l0.21-1.85l-0.76-0.08c-0.78-0.09-1.23,0.08-1.3,0.73c-0.07,0.65,0.31,1.03,1.09,1.11L381.69,130.46z"/>
</g>
</svg>
