<?xml version="1.0" encoding="utf-8"?>
<!-- Generator: Adobe Illustrator 25.0.1, SVG Export Plug-In . SVG Version: 6.00 Build 0)  -->
<svg version="1.1" id="Слой_2" xmlns="http://www.w3.org/2000/svg" xmlns:xlink="http://www.w3.org/1999/xlink" x="0px" y="0px"
	 viewBox="0 0 492.7 427.28" style="enable-background:new 0 0 492.7 427.28;" xml:space="preserve">
<style type="text/css">
	.st0{fill:#F0F2F3;}
	.st1{fill:#D9E1F3;}
	.st2{fill:#2D84B3;}
	.st3{fill:#82CAED;}
	.st4{fill:#D6D7DA;}
	.st5{fill:#4F4A71;}
	.st6{fill:#CBE8F7;}
	.st7{fill:#FFFFFF;}
	.st8{fill:#E49A90;}
	.st9{fill:#7990C6;}
	.st10{fill:#E59C8D;}
	.st11{fill:#524871;}
	.st12{fill:#CC493B;}
	.st13{fill:#EA5144;}
	.st14{fill:#FFFFFD;}
	.st15{fill:#8ED0EE;}
	.st16{fill:#9DC6DD;}
	.st17{fill:#92D0F3;}
</style>
<rect class="st0" width="492.7" height="427.28"/>
<g>
	<path class="st1" d="M31.59,399.61v14.95c0,0,0.74,7.3,9.46,7.12s373.24,0.71,373.24,0.71s11.74,3.09,7.92-19.68l-1-4L31.59,399.61
		"/>
	<path class="st1" d="M387.33,364.2c0,0,59.79,1.07,92.35-99.83c0,0,18.68-61.39-11.21-83.81c0,0-16.65-10.94-32.08-10.41
		c-15.43,0.53-58.14-9.61-36.78-43.77c21.35-34.17,42.17-51.52,17.62-77.67c-24.56-26.16-58.19-13.88-58.19-13.88
		s-71,38.7-99.56-13.61c0,0-23.76-26.96-72.87,13.08s-59.79,29.36-70.73,27.76c-10.94-1.6-83.01-8.54-107.57,66.73
		s72.6,138.98,72.6,138.98l-37.64,35.32c0,0-42.44,22.95,2.67,80.61l169.49-13.61L387.33,364.2z"/>
	
		<ellipse transform="matrix(0.929 -0.3702 0.3702 0.929 -139.9651 34.1877)" class="st2" cx="19.09" cy="381.74" rx="15.87" ry="13.15"/>
	<circle class="st2" cx="29.25" cy="349.42" r="7.6"/>
	<circle class="st2" cx="71.65" cy="25.39" r="6.76"/>
	
		<ellipse transform="matrix(0.4284 -0.9036 0.9036 0.4284 -29.3795 81.0202)" class="st2" cx="49.35" cy="63.73" rx="15.39" ry="13.03"/>
	
		<ellipse transform="matrix(0.9633 -0.2684 0.2684 0.9633 -11.0362 29.4671)" class="st2" cx="102.25" cy="55.09" rx="22.15" ry="19.19"/>
	<circle class="st2" cx="322.87" cy="12.33" r="6.9"/>
	<circle class="st2" cx="412.91" cy="125.53" r="6.9"/>
	<circle class="st2" cx="447.36" cy="144.91" r="7.18"/>
	
		<ellipse transform="matrix(0.9377 -0.3475 0.3475 0.9377 -27.6643 147.8824)" class="st2" cx="398.5" cy="151.08" rx="15.26" ry="12.8"/>
	<path class="st3" d="M419.94,396.59c-6.18-6.45-64.02-62.99-64.02-62.99s-3.49-3.04-9.31-3.32c-0.01,0-0.02,0-0.02,0
		c3.33-2.45,5.5-6.38,5.5-10.83V165.53c0-7.42-6.01-13.43-13.43-13.43H116.23c-7.42,0-13.43,6.01-13.43,13.43v153.92
		c0,5.22,2.98,9.74,7.33,11.96c0,0-0.01,0-0.01,0s-6.25-0.3-9.19,2.77l-68.6,63.13c0,0-5.2,5.61,12.01,5.41
		c17.22-0.2,363.81,0.01,363.81,0.01S426.12,403.04,419.94,396.59z"/>
	<polygon class="st2" points="176.2,378.88 169.39,397.43 284.16,398.24 278.43,378.88 	"/>
	<g>
		<polygon class="st4" points="109.38,335.38 102.79,342.05 129.75,342.05 134.2,335.38 		"/>
		<polygon class="st4" points="152.04,335.38 145.46,342.05 172.42,342.05 176.87,335.38 		"/>
		<polygon class="st4" points="146.35,345.07 139.77,351.75 166.72,351.75 171.17,345.07 		"/>
		<polygon class="st4" points="80.2,366.48 72.28,375.24 104.73,375.24 110.09,366.48 		"/>
		<polygon class="st4" points="91.53,355.22 84.38,361.89 113.66,361.89 118.5,355.22 		"/>
		<polygon class="st4" points="101.86,344.54 95.28,351.21 122.24,351.21 126.69,344.54 		"/>
		<polygon class="st4" points="140.79,355.22 133.45,361.89 163.5,361.89 168.46,355.22 		"/>
		<polygon class="st4" points="191.94,335.38 190.17,342.05 217.3,342.05 217.3,335.73 		"/>
		<polygon class="st4" points="189.19,344.63 187.5,351.21 216.41,351.75 216.41,344.63 		"/>
		<polygon class="st4" points="186.7,355.22 184.47,361.89 215.26,363.14 215.26,355.22 		"/>
		<polygon class="st4" points="131.8,366.48 126.1,375.24 272.91,375.24 270.08,366.48 		"/>
		<polygon class="st4" points="233.36,335.51 233.36,342.14 260.68,342.14 259.21,335.51 		"/>
		<polygon class="st4" points="234.34,344.58 234.61,351.7 263.03,351.7 260.68,344.05 		"/>
		<polygon class="st4" points="234.61,354.33 234.61,363.14 265.79,363.14 263.52,354.33 		"/>
		<polygon class="st4" points="287.86,335.51 275.4,335.51 277.45,342.14 303.96,342.14 300.67,335.51 		"/>
		<polygon class="st4" points="278.6,344.63 281.27,351.7 309.48,351.7 305.83,344.63 		"/>
		<polygon class="st4" points="282.52,354.77 284.92,363.14 316.24,363.14 311.88,354.33 		"/>
		<polygon class="st4" points="287.15,366.07 290.62,376.04 323.8,376.04 318.37,366.07 		"/>
		<polygon class="st4" points="320.07,335.91 323.8,342.14 350.89,342.14 345.16,335.51 		"/>
		<polygon class="st4" points="326.34,344.63 331.08,351.7 359.7,351.7 353.7,344.63 		"/>
		<polygon class="st4" points="333.81,354.79 339.22,363.14 370.18,363.14 362.51,354.33 		"/>
		<polygon class="st4" points="342.69,366.48 349.16,376.04 382.59,376.04 373.25,366.07 		"/>
	</g>
	<circle class="st5" cx="223.09" cy="160.72" r="4.8"/>
	<circle class="st5" cx="207.6" cy="160.72" r="2.18"/>
	<path class="st6" d="M326.08,318H127.03c-6.21,0-11.24-5.03-11.24-11.24v-120c0-6.21,5.03-11.24,11.24-11.24h199.05
		c6.21,0,11.24,5.03,11.24,11.24v120C337.32,312.97,332.29,318,326.08,318z"/>
	<path class="st7" d="M167.74,226.81c0,0-16.02-1.49-21.8,7.76s-23.04,36.92-24.11,50.98c-1.07,14.06,10.51,13.88,39.33,14.06
		c28.82,0.18,29.89-6.94,29.89-6.94l-2.49-17.79c0,0-22.38,6.18-44.4,4.58l2-4.67l13.08,4.14l-19.69,20.69l-0.13,10.07h82.23
		l-1.6-11.41c0,0,20.82-2.76,8.19-28.74c-12.63-25.98-22.07-47.02-42.13-42.73H167.74z"/>
	<path class="st8" d="M169.99,226.81c0,0,5.2-0.73,4.87-7.81c0,0-3.6-1.53-5.61-7.21c0,0-3.53-1.98-1.43-6.1
		c2.1-4.11,18.18-10.99,18.18-10.99l7.21,7.94l-0.46,3.1c0,0,1.29,16.01-11.39,14.58c0,0,0.09,6.45,4.76,6.47
		c0,0-1.73,4.83-8.5,4.03S169.99,226.81,169.99,226.81z"/>
	<path class="st9" d="M169.99,226.81h-2.25c0,0,7.74,45.49,12.81,49.31c0,0,8.1-33.85,5.56-49.31H169.99z"/>
	<polygon class="st10" points="159.25,278.92 146.17,274.79 144.17,279.46 	"/>
	<path class="st10" d="M188.64,275.43l12.78-6.16c0,0,4.58-0.22,2.45,3.65l-3.91,3.56l7.92-0.36c0,0,4.4,1.2,0.67,4.05l-0.38,0.44
		l1.73,0.29c0,0,2.96,1.2,0.47,3.54l-1.09,0.76l1.42,0.47c0,0,3,1.8-0.91,4.56c-3.91,2.76-16.1,5.58-18.79,2.65L188.64,275.43z"/>
	<path class="st11" d="M192.28,205.85c0,0,2.8,0,2-5.34c0,0,7.41-6.34,1.27-11.54c0,0-3.4-2.34-7.01,0.93c0,0-0.13-2.55-3.14-1.74
		c-3,0.81-9.61,3.34-9.61,3.34l-4.14,0.6c0,0-11.74,6.74-1.07,16.82l4.14-7.01c0,0,8.34,3,17.22-0.73L192.28,205.85z"/>
	<path class="st12" d="M319.08,169.42c0,12.6,8.26,23.25,19.66,26.86c-14.45-1.19-25.8-13.3-25.8-28.05
		c0-15.56,12.61-28.16,28.16-28.16c2.96,0,5.82,0.46,8.5,1.31c-0.77-0.07-1.57-0.1-2.36-0.1
		C331.69,141.27,319.08,153.88,319.08,169.42z"/>
	<circle class="st13" cx="345.87" cy="169.17" r="28.25"/>
	<rect x="342.13" y="150.13" class="st14" width="7.47" height="38.08"/>
	<rect x="326.65" y="163.66" class="st14" width="38.97" height="7.83"/>
	<g>
		<path class="st2" d="M299.83,236.97h-41.75c-2.97,0-5.37-2.41-5.37-5.37v-38.01c0-2.97,2.41-5.37,5.37-5.37h41.75
			c2.97,0,5.37,2.41,5.37,5.37v38.01C305.21,234.57,302.8,236.97,299.83,236.97z"/>
		<path class="st2" d="M299.36,301.12h-44.09c-3.23,0-5.85-2.62-5.85-5.85v-42.67c0-3.23,2.62-5.85,5.85-5.85h44.09
			c3.23,0,5.85,2.62,5.85,5.85v42.67C305.21,298.5,302.59,301.12,299.36,301.12z"/>
	</g>
	<g>
		<path class="st7" d="M270.29,192.04h-2.34c0,0-2.2,16.28,8.41,19.62c0,0-11.41,6.21-8.27,21.82h1.94c0,0-3.34-15.81,9.81-20.42
			c0,0,11.21,3.54,9.81,19.55h1.94c0,0,2.41-16.59-8.81-20.35c0,0,10.51-4.74,9.03-19.55l-2.51,0.04c0,0,2.31,14.06-9.25,17.53
			C280.03,210.28,267.48,208.72,270.29,192.04z"/>
		<rect x="269.46" y="195.31" class="st7" width="20.66" height="0.97"/>
		<rect x="270.15" y="199.93" class="st7" width="19.31" height="1.25"/>
		<rect x="271.98" y="205.25" class="st7" width="15.26" height="0.86"/>
		<rect x="272.21" y="217.44" class="st7" width="14.42" height="1.12"/>
		<rect x="269.95" y="222.41" class="st7" width="19.03" height="1.33"/>
		<rect x="269.22" y="227.28" class="st7" width="20.99" height="1.43"/>
	</g>
	<path class="st7" d="M136.96,87.49c0-2.55,2.01-4.62,4.48-4.62h103.94c2.48,0,4.48,2.07,4.48,4.62v37.77
		c0,2.55-2.01,4.62-4.48,4.62h-94.65l-13.21,12.52v-14.9l0.02,0c-0.36-0.67-0.59-1.42-0.59-2.24V87.49z"/>
	<path class="st13" d="M158.05,97.11c-2.1-2.86-5.76-3.97-8.8-2.79c-3.27,1.27-4.55,4.7-4.64,7.06c-0.06,1.54,0.39,2.81,0.88,3.85
		c2.82,5.97,10.09,10.53,12.56,11.99c0,0,13.03-6.85,13.35-15.88C171.7,92.3,162.67,91.41,158.05,97.11z"/>
	<rect x="162.58" y="105.37" class="st15" width="2.62" height="11.53"/>
	<rect x="157.82" y="109.47" class="st15" width="12.14" height="2.98"/>
	<path class="st16" d="M181.07,97.89c0,0,3.74-4,9.41-1.87c5.67,2.14,8.94-1.8,8.94-1.8s3.67-2.2,8.14,1.13s9.01-0.8,9.01-0.8
		s4.14-2.74,8.61,0.33c4.47,3.07,8.67-0.93,8.67-0.93s2.07-1.38,6.07-0.52c0,0,0.85,1.21-0.49,1.61c-1.33,0.4-1.38-1.56-6.52,1.25
		c-5.14,2.8-7.21,1.6-9.94-0.77s-8.61,2.39-8.61,2.39s-4.94,1.31-8.67-1.82c-3.74-3.14-7.67,0.93-7.67,0.93s-5.07,3.2-8.61,0.27
		s-7.27,1.53-7.27,1.53S180.25,99.24,181.07,97.89z"/>
	<path class="st16" d="M181.07,107.75c0,0,3.74-4,9.41-1.87c5.67,2.14,8.94-1.8,8.94-1.8s3.67-2.2,8.14,1.13
		c4.47,3.34,9.01-0.8,9.01-0.8s4.14-2.74,8.61,0.33c4.47,3.07,8.67-0.93,8.67-0.93s2.07-1.38,6.07-0.52c0,0,0.85,1.21-0.49,1.61
		s-1.38-1.56-6.52,1.25s-7.21,1.6-9.94-0.77c-2.74-2.37-8.61,2.39-8.61,2.39s-4.94,1.31-8.67-1.82c-3.74-3.14-7.67,0.93-7.67,0.93
		s-5.07,3.2-8.61,0.27c-3.54-2.94-7.27,1.53-7.27,1.53S180.25,109.1,181.07,107.75z"/>
	<path class="st16" d="M181.57,115.08c0,0,3.93,4.12,9.49,1.57s9.02,1.52,9.02,1.52s3.78,2.19,8.08-1.6s9.04,0.44,9.04,0.44
		s4.27,2.74,8.58-0.76c4.31-3.5,8.71,0.6,8.71,0.6s2.14,1.38,6.09,0.28c0,0,0.78-1.34-0.57-1.71c-1.35-0.37-1.3,1.74-6.57-1.03
		s-7.28-1.38-9.89,1.29c-2.61,2.67-8.72-2.17-8.72-2.17s-5-1.18-8.57,2.36c-3.58,3.54-7.71-0.65-7.71-0.65s-5.23-3.2-8.61,0.11
		c-3.39,3.32-7.34-1.31-7.34-1.31S180.69,113.66,181.57,115.08z"/>
	<path class="st9" d="M327.01,26.98c0-2.45-1.98-4.43-4.43-4.43H219.86c-2.45,0-4.43,1.98-4.43,4.43v36.25
		c0,2.45,1.98,4.43,4.43,4.43h93.53l13.06,12.01V65.37l-0.02,0c0.36-0.64,0.58-1.37,0.58-2.15V26.98z"/>
	<path class="st12" d="M226.87,45.25c0,5.66,3.71,10.45,8.84,12.07c-6.49-0.54-11.6-5.98-11.6-12.61c0-6.99,5.67-12.66,12.66-12.66
		c1.33,0,2.62,0.21,3.82,0.59c-0.35-0.03-0.7-0.05-1.06-0.05C232.53,32.59,226.87,38.26,226.87,45.25z"/>
	<circle class="st13" cx="238.91" cy="45.05" r="12.7"/>
	<rect x="237.23" y="36.49" class="st14" width="3.36" height="17.11"/>
	<rect x="230.27" y="42.57" class="st14" width="17.51" height="3.52"/>
	<path class="st16" d="M259.31,36.79c0,0,3.74-4,9.41-1.87c5.67,2.14,8.94-1.8,8.94-1.8s3.67-2.2,8.14,1.13s9.01-0.8,9.01-0.8
		s4.14-2.74,8.61,0.33s8.67-0.93,8.67-0.93s2.07-1.38,6.07-0.52c0,0,0.85,1.21-0.49,1.61c-1.33,0.4-1.38-1.56-6.52,1.25
		s-7.21,1.6-9.94-0.77c-2.74-2.37-8.61,2.39-8.61,2.39s-4.94,1.31-8.67-1.82c-3.74-3.14-7.67,0.93-7.67,0.93s-5.07,3.2-8.61,0.27
		c-3.54-2.94-7.27,1.53-7.27,1.53S258.49,38.14,259.31,36.79z"/>
	<path class="st16" d="M257.52,55.47c0,0,3.74-4,9.41-1.87c5.67,2.14,8.94-1.8,8.94-1.8s3.67-2.2,8.14,1.13
		c4.47,3.34,9.01-0.8,9.01-0.8s4.14-2.74,8.61,0.33c4.47,3.07,8.67-0.93,8.67-0.93s2.07-1.38,6.07-0.52c0,0,0.85,1.21-0.49,1.61
		s-1.38-1.56-6.52,1.25c-5.14,2.8-7.21,1.6-9.94-0.77c-2.74-2.37-8.61,2.39-8.61,2.39s-4.94,1.31-8.67-1.82
		c-3.74-3.14-7.67,0.93-7.67,0.93s-5.07,3.2-8.61,0.27c-3.54-2.94-7.27,1.53-7.27,1.53S256.7,56.83,257.52,55.47z"/>
	<path class="st16" d="M258.38,43.51c0,0,3.93,4.12,9.49,1.57s9.02,1.52,9.02,1.52s3.78,2.19,8.08-1.6s9.04,0.44,9.04,0.44
		s4.27,2.74,8.58-0.76s8.71,0.6,8.71,0.6s2.14,1.38,6.09,0.28c0,0,0.78-1.34-0.57-1.71c-1.35-0.37-1.3,1.74-6.57-1.03
		s-7.28-1.38-9.89,1.29c-2.61,2.67-8.72-2.17-8.72-2.17s-5-1.18-8.57,2.36s-7.71-0.65-7.71-0.65s-5.23-3.2-8.61,0.11
		c-3.39,3.32-7.34-1.31-7.34-1.31S257.49,42.1,258.38,43.51z"/>
	<g>
		<g>
			<path class="st7" d="M264.61,264.31v29.29c0,0,0.87,1.87,3.34,1.8s22.15-0.33,22.15-0.33s2.27-0.13,1.87-2.94
				c-0.4-2.8-0.33-27.83-0.33-27.83h2.47v-8.67h-31.83v8.52h2.32L264.61,264.31z"/>
			
				<ellipse transform="matrix(0.365 -0.931 0.931 0.365 -86.8707 431.0758)" class="st17" cx="272.59" cy="279.22" rx="4.77" ry="1.97"/>
			
				<ellipse transform="matrix(0.2815 -0.9596 0.9596 0.2815 -62.3362 470.5285)" class="st17" cx="283.01" cy="276.89" rx="1.97" ry="4.77"/>
			
				<ellipse transform="matrix(0.8022 -0.5971 0.5971 0.8022 -114.9995 224.8007)" class="st17" cx="281.78" cy="285.96" rx="1.97" ry="4.77"/>
			<rect x="263.98" y="256.8" class="st17" width="0.67" height="6.68"/>
			<rect x="291.82" y="256.31" class="st17" width="0.67" height="7.5"/>
			<rect x="288.5" y="256.78" class="st17" width="1.23" height="6.68"/>
			<rect x="285.82" y="256.73" class="st17" width="0.67" height="6.68"/>
			<rect x="282.53" y="256.16" class="st17" width="0.87" height="7.93"/>
			<rect x="279.23" y="256.16" class="st17" width="1.23" height="7.83"/>
			<rect x="276.56" y="256.44" class="st17" width="0.67" height="8.35"/>
			<rect x="273.24" y="256.8" class="st17" width="0.67" height="6.68"/>
			<rect x="270.64" y="256.16" class="st17" width="0.67" height="7.97"/>
			<rect x="267.3" y="256.8" class="st17" width="0.67" height="7.87"/>
		</g>
		<ellipse class="st17" cx="276.19" cy="290.58" rx="4.77" ry="1.97"/>
	</g>
</g>
</svg>
