<?xml version="1.0" encoding="utf-8"?>
<!-- Generator: Adobe Illustrator 25.0.1, SVG Export Plug-In . SVG Version: 6.00 Build 0)  -->
<svg version="1.1" id="Слой_2" xmlns="http://www.w3.org/2000/svg" xmlns:xlink="http://www.w3.org/1999/xlink" x="0px" y="0px"
	 viewBox="0 0 490.66 380.94" style="enable-background:new 0 0 490.66 380.94;" xml:space="preserve">
<style type="text/css">
	.st0{fill:#C1C1C4;}
	.st1{fill:#57B8E4;}
	.st2{fill:#F7B8A8;}
	.st3{fill:#FFFDF2;}
	.st4{fill:#2F455D;}
	.st5{fill:#304159;}
	.st6{fill:#06509F;}
	.st7{fill:#1E2E3E;}
	.st8{fill:#171F2C;}
	.st9{fill:#0D1420;}
	.st10{fill:#2D4159;}
	.st11{fill:#4477BB;}
	.st12{fill:#F7B8A9;}
	.st13{fill:#F2D3B6;}
	.st14{fill:#24BCEE;}
	.st15{fill:#2E3E55;}
	.st16{fill:#BFC0C4;}
	.st17{fill:#DFF1F7;}
	.st18{fill:#004B95;}
	.st19{fill:#FBD9B4;}
	.st20{fill:#171E30;}
	.st21{fill:#FCD5B9;}
	.st22{fill:#FFFFFF;}
	.st23{fill:#FACAB2;}
	.st24{fill:#FBD5B8;}
	.st25{fill:#2E2D2B;}
	.st26{fill:#171F2E;}
</style>
<g>
	<path class="st0" d="M48.12,259.06l9.57,44.11l-8.59,51.66l6.82,2.27l21.14-54.69c0,0,2.36-2.23,2.48-8.93
		c0.13-6.69,0.72-12.13,0.72-12.13l2.53,13.68l4.25,59.49h7.33l8.59-56.76c0,0,0.93-3.79,0.51-6.65
		c-0.42-2.86,0.11-35.28,0.11-35.28l-55.45-0.84V259.06z"/>
	<polygon class="st1" points="108.09,129.79 23.2,139.73 17.82,84.99 55.2,54.51 101.69,76.06 	"/>
	
		<ellipse transform="matrix(0.9529 -0.3032 0.3032 0.9529 -30.4566 38.2902)" class="st2" cx="108.09" cy="117.23" rx="2.4" ry="5.09"/>
	
		<ellipse transform="matrix(0.961 -0.2766 0.2766 0.961 -35.2567 13.3137)" class="st2" cx="29.56" cy="131.63" rx="2.4" ry="5.09"/>
	
		<rect x="43.13" y="95.24" transform="matrix(0.9944 -0.106 0.106 0.9944 -11.8445 6.3663)" class="st3" width="21.72" height="38.82"/>
	<path class="st4" d="M51.45,46.28L4.96,85.54c-1.73,1.46-1.95,4.06-0.49,5.79l0,0c1.46,1.73,4.06,1.95,5.79,0.49l46.49-39.26
		c1.73-1.46,1.95-4.06,0.49-5.79l0,0C55.77,45.04,53.18,44.82,51.45,46.28z"/>
	<path class="st5" d="M52.72,53.21l57.44,27.01c2.05,0.97,4.5,0.08,5.47-1.97l0,0c0.97-2.05,0.08-4.5-1.97-5.47L56.22,45.77
		c-2.05-0.97-4.5-0.08-5.47,1.97l0,0C49.79,49.8,50.67,52.24,52.72,53.21z"/>
	<path class="st6" d="M44.2,158.92L33.1,134l-5.94,2.36l7.54,39.49l24.84,12.8c0,0-4.59,12.38-7.87,16.08s-9.6,22.48-10.78,29.64
		c-1.18,7.16-3.79,13.73-3.79,13.73s-2.19,7.49,3.03,8.59c5.22,1.09,37.52,15.03,73.64-1.52c0,0-9.35-22.48-10.61-48
		c-1.26-25.52-1.83-21.98-2.97-25.83l26.76-23.77l-15.16-37.56l-6.48,1.35l5.64,33.43l-3.39,1.93L89.01,170.7
		c0,0-4.1-3.07-18.44-2.31S44.2,158.92,44.2,158.92z"/>
	<path class="st2" d="M76.89,168.89l0.25,2.67c0,0,1.43,2.86,6.91,0.55l-0.53-3.71L76.89,168.89z"/>
	<path class="st7" d="M69.72,159.28c0,0-4.58,2.01,0.31,6.09c0,0,3.12,12.84-2.53,15.83c-5.64,2.99-9.6-3.41-10.15-5.81
		c-0.55-2.4,0.13-3.78-3.58-4.69s-6.19,2.92-8.46-4.15c0,0,0.38-4.67-0.88-7.07s1.56-4.21,1.56-4.21s5.26-1.89,6.19-9.31
		c0,0,0.42-4.08,4.8-4c4.38,0.08,5.09-2.23,5.09-2.23s3.45-1.68,5.39,0.67s4.13-0.63,4.13-0.63s2.23-2.91,5.14-0.93
		c2.91,1.98,2.86,3.28,2.86,3.28s4.17-7.49,8.59-4.63c4.42,2.86,3.96,3.24,5.98,3.62c2.02,0.38,7.2,1.64,7.96,6.15
		c0,0,0.46,0.34,5.09-1.81c0,0,8.72,1.01,3.24,7.03c0,0-4.42,2.27-2.4,7.54c2.02,5.26-1.89,6.48-2.86,6.82
		c-0.97,0.34-0.97,3.12-0.97,3.12s-8.93,12.08-14.48,1.85c0,0-3.39-3.52-0.91-12.14L69.72,159.28z"/>
	
		<ellipse transform="matrix(0.9914 -0.1307 0.1307 0.9914 -19.9734 11.7111)" class="st2" cx="79.23" cy="158.02" rx="9.6" ry="11.37"/>
	<polygon class="st8" points="49.49,354.97 49.18,359.98 55.92,364.36 59.92,360.86 56.24,356.28 49.56,354.12 	"/>
	<polygon class="st8" points="87.34,354.55 87.34,358.57 94.67,362.26 98.58,358.54 94.19,354.55 	"/>
	<polygon class="st9" points="148.26,357.11 143.77,361.03 146.87,365.07 154.38,361.85 155.02,356.31 148.95,356.31 	"/>
	<polygon class="st9" points="163.67,350.8 163.1,353.77 169.67,358.82 173.84,355.41 169.48,350.04 165.37,348.08 	"/>
	<polygon class="st10" points="141.18,290.97 148.26,357.11 154.95,357.11 160.38,290.97 164.43,290.97 168.47,306.71 163.67,350.8 
		169.8,351.05 184.38,307.85 185.01,290.97 185.01,281.83 140.17,284.86 	"/>
	<path class="st11" d="M194.83,290.97h-67.87c0,0-5.97-42.88-1.05-67.33s23.95-55.95,23.95-55.95l20.88,9.94l5.89,22.57l30.99-13.18
		l1.77,3.05l6.25-2.08c0,0-1.64,7.39-35.18,28.04L194.83,290.97z"/>
	
		<ellipse transform="matrix(0.3327 -0.943 0.943 0.3327 -42.1802 255.9052)" class="st12" cx="159.73" cy="157.76" rx="13.52" ry="10.78"/>
	<path class="st7" d="M154,236.23c0,0-3.98,0.63-4.23-1.89s-1.01-6-7.01-6.69s-9.28,1.52-15.09-2.46
		c-5.81-3.98-4.91-11.94-0.72-15.28c4.19-3.35,11.64-8.53,11.83-18c0,0-1.14-6.76-2.71-9.91c-1.58-3.16-1.45-31.56,15.6-42.13
		c0,0,6.53-4.8,11.92,0l1.26,1.52c0,0,1.81-1.18,2.69-0.42c0.88,0.76,5.26,6.11,3.71,16.63c0,0-2.69,7.71-1.39,13.01
		c1.31,5.31-4.46,2.95-8.63-0.13c0,0,9.01-2.95,8.04-17.05c0,0-1.31-8.55-4.08-6.48c0,0-0.8,2.48-3.45,1.85s-11.37,1.22-9.18,19.71
		c0,0,1.05,3.75,2.99,5.77c1.94,2.02,0.38,5.94,0.38,5.94s-2.57,4.63-1.43,11.87c1.14,7.24,9.22,17.01,9.22,17.01
		s8.59,7.54,3.71,15.2c0,0-1.18,2.74-5.01,2.57c-3.83-0.17-3.28,5.39-3.28,5.39S158.28,236.53,154,236.23z"/>
	<path class="st13" d="M212.51,179.44l-4.63,4.67c0,0-1,1.61-0.25,2.91c0.75,1.3,1.77,3.05,1.77,3.05s11.54-2.67,10.44-9.83
		c0,0,0.07-2.46-6.21,1.68l-0.51-1.31C213.12,180.61,213.9,178.73,212.51,179.44z"/>
	<path class="st11" d="M263.5,4.06c0,0-33.52,28.96-92.06,11.23c0,0-7.04,89.13,8.02,120.09s43.72,70.4,67.04,80.89
		c0,0,40.44-11.11,77.97-67.28c0,0,22.1-40.36,28.42-118.61C352.89,30.38,296.05,39.02,263.5,4.06z"/>
	<path class="st1" d="M263.25,13.41c0,0-29.82,25.17-81.91,9.77c0,0-6.27,77.48,7.13,104.39s38.9,61.2,59.65,70.32
		c0,0,35.98-9.66,69.37-58.49c0,0,19.67-35.08,25.28-103.1C342.78,36.29,292.21,43.79,263.25,13.41z"/>
	<path class="st0" d="M261.96,28.33c0,0-29.74,24.39-81.68,9.46c0,0-6.25,75.05,7.11,101.12s38.79,59.29,59.48,68.11
		c0,0,35.88-9.36,69.18-56.66c0,0,19.61-33.98,25.21-99.88C341.27,50.49,290.84,57.76,261.96,28.33z"/>
	<path class="st1" d="M260.12,45.24c0,0-23.82,19.54-65.43,7.58c0,0-5.01,60.13,5.7,81.01c10.7,20.88,31.08,47.49,47.65,54.57
		c0,0,28.75-7.49,55.42-45.39c0,0,15.71-27.22,20.2-80.01C323.66,63,283.26,68.82,260.12,45.24z"/>
	<path class="st14" d="M233.52,353.45l-46.95-0.38v-12.76c0,0,4.04-11.12,9.94-12.97c5.89-1.85,19.14-5.56,19.14-5.56l8.15-18.53
		c0,0,4.04-9.56,12-9.81c7.96-0.25,55.16,0,55.16,0s4.59,0.72,6.82,6.11c2.23,5.39,9.89,21.39,9.89,21.39l8.76,8.51
		c0,0,3.96,3.87,3.87,10.53c-0.08,6.65,0,14.4,0,14.4L233.52,353.45z"/>
	<circle class="st15" cx="221.39" cy="353.45" r="12.13"/>
	<circle class="st15" cx="291.12" cy="353.45" r="11.37"/>
	<circle class="st16" cx="221.14" cy="352.9" r="6.99"/>
	<circle class="st16" cx="290.95" cy="353.07" r="6.82"/>
	<path class="st17" d="M258.53,319.47v-21.22h-20.34c0,0-7.2-0.13-9.47,5.68c-2.27,5.81-7.33,15.54-7.33,15.54H258.53z"/>
	<path class="st17" d="M287.25,298.25l-22.99,0.17v21.39l35.62,0.38l-7.41-18.32C292.47,301.87,291.92,297.87,287.25,298.25z"/>
	<path class="st18" d="M254.2,328.31h-4.42c-0.65,0-1.17-0.52-1.17-1.17l0,0c0-0.65,0.52-1.17,1.17-1.17h4.42
		c0.65,0,1.17,0.52,1.17,1.17l0,0C255.37,327.79,254.85,328.31,254.2,328.31z"/>
	
		<ellipse transform="matrix(0.7984 -0.6021 0.6021 0.7984 -41.4564 223.6398)" class="st19" cx="313.26" cy="173.73" rx="3.42" ry="7.31"/>
	<path class="st7" d="M367.12,164.74c0.61-0.24,8.19-3.45,9.62-11.19c0.07-0.4,1.27-7.45-3.22-11.8c-1.38-1.34-2.82-1.87-5.71-2.93
		c-6.57-2.41-12.24-2.63-14.17-2.29c-3.37,0.59-6.74,1.18-10.11,1.77c-0.55-0.06-3.97-0.35-6.15,2.02c-1.48,1.6-1.58,3.55-1.68,5.39
		c-0.1,1.77-0.23,5.13,2.07,8.11c1.34,1.74,3.81,2.98,8.71,3.76c0,0,1.18,0.84,7.07-2.53C359.46,151.68,372.68,151.18,367.12,164.74
		z"/>
	<polygon class="st10" points="379.35,271.39 335.71,266.17 335.71,290.17 345.31,353.7 352.51,353.7 357.53,294.46 388.76,355.35 
		395.71,351.94 380.05,300.78 	"/>
	<polygon class="st20" points="352.51,353.7 352.51,357.16 344.89,361.45 340.68,357.58 345.31,353.7 	"/>
	<polygon class="st20" points="388.37,354.57 385.31,359.43 389.69,362.71 396.42,357.58 394.73,352.42 388.76,355.35 	"/>
	<path class="st21" d="M364.59,172.32v-3.87c0,0-0.42-1.52,1.09-2.02s2.7-6.31,2.7-6.31l-0.6-14.65l-19.37,9.01
		c0,0,1.43,9.77,2.61,11.12c1.18,1.35,0.67,2.27,2.95,2.53c2.27,0.25,3.45,1.77,3.87,5.22l4.13,3.37l2.95-3.45L364.59,172.32z"/>
	<path class="st22" d="M347.71,205.41l7.83-32.08l9.39-0.08c0,0-1.56,39.49-5.22,45.94l-7.96,6.57l3.54,8.21l4.67-2.4l-0.13,37.26
		l-24.13-2.65L347.71,205.41z"/>
	<path class="st23" d="M312.21,209.96c0,0-21.22-24-43.71,0s30.06,70.23,42.44,75.54c0,0,76.46-42.24,39.37-78.47
		C350.32,207.03,329.39,188.48,312.21,209.96z"/>
	<g>
		<rect x="306.91" y="221.41" class="st22" width="9.6" height="37.81"/>
		<rect x="293.27" y="235.6" class="st22" width="37.39" height="9.6"/>
	</g>
	
		<ellipse transform="matrix(0.8458 -0.5335 0.5335 0.8458 -69.9233 221.9304)" class="st24" cx="348.99" cy="231.93" rx="6.98" ry="3.99"/>
	<path class="st0" d="M319.54,173.33l-5.56,6.11c4.32,6.87,8.64,13.74,12.96,20.62c1.51-0.3,3.53-0.55,5.9-0.42
		c2.6,0.15,4.74,0.7,6.28,1.23c1.22-0.99,2.44-1.99,3.66-2.98c-0.14,1.4-0.28,2.81-0.43,4.21c1.83,0.99,3.65,1.99,5.48,2.98
		c2.57-10.58,5.14-21.16,7.71-31.75l9.39-0.08c0,0-1.05,34.06-5.22,45.94l-7.96,6.57l3.54,8.21l4.67-2.4l-0.13,37.26l26.91,3.54
		c0,0,6.06-49.64,1.89-57.09c0,0,4.8-0.76,3.47-7.2c-1.33-6.44-13.79-28.62-13.79-28.62s-1.01-1.65-2.36-1.15l-5.73-7.83
		l-19.37,0.51l-0.84,3.03l-15.66,13.73L319.54,173.33z"/>
	<path class="st25" d="M411.12,40.32l-4.81,0.27c0,0-0.45-2.59,3.08-3.22l0.08-3.54c0,0,0.63-2.69,1.64-2.86s1.71,2.69,1.71,2.69
		l0.19,3.41c0,0,3.24,1.32,2.95,3.25H411.12z"/>
	<path class="st25" d="M392.74,144.59c0,0-2.4,0.06-1.89,2.53c0.51,2.46,1.85,9.65,10.67,10.8c8.82,1.15,10.17-8.08,10.17-8.08
		l1.71-15.16l-0.57-45.79h-3.6l0.06,54.57l-0.25,3.59c0,0-1.96,10.11-10.55,6.13c0,0-3.35-1.83-3.92-6.76
		C394.57,146.42,393.91,144.23,392.74,144.59z"/>
	<path class="st6" d="M426.64,262.98c0,0-4.11,14.17-2.76,27.81l13.14,54.9l8.25-1.68l-3.37-45.64l6.4-19.2l9.6,69.56h5.89
		l4.04-47.83l5.22-28.55L426.64,262.98z"/>
	<path class="st26" d="M438.11,346.88l-6.32,6.74l1.94,3.37l13.31-6.4l-2.53-4.97C444.51,345.62,440.72,347.81,438.11,346.88z"/>
	<polygon class="st26" points="457.9,351.68 450.49,356.31 451.25,360.19 465.65,357.57 464.55,352.42 	"/>
	<circle class="st21" cx="450.02" cy="148.78" r="12"/>
	<path class="st21" d="M449.25,160.75l1.99,4.02l8.24-3.05c0,0-2.68-1.91-2.76-2.98L449.25,160.75z"/>
	<polygon class="st7" points="459.33,156.06 463.88,152.36 461.6,131.39 437.69,131.39 427.83,136.86 427.83,142.76 437.27,149.41 
		439.29,145.12 455.79,143.26 	"/>
	
		<ellipse transform="matrix(0.9778 -0.2094 0.2094 0.9778 -18.0728 88.7615)" class="st21" cx="410.21" cy="129.74" rx="2.68" ry="5.74"/>
	
		<ellipse transform="matrix(0.9475 -0.3197 0.3197 0.9475 -18.5485 139.6762)" class="st21" cx="416.2" cy="126.34" rx="2.68" ry="5.74"/>
	<path class="st14" d="M479.46,274.13l-64.67-13.64l22.74-67.96l-25.26-15.83l-4.55-41.89l6.44-1.14l0.76-2.78l5.31-2.02
		l12.51,31.45l17.05,5.05l15.92-6.44C465.69,158.93,498.49,212.31,479.46,274.13z"/>
	<path class="st11" d="M410.21,40.44c0,0-47.47-1.77-58.84,53.05c0,0,15.03-5.43,33.98,0c0,0,19.96-10.11,51.54,0
		c0,0,21.98-5.81,37.39,0C474.28,93.49,466.52,37.41,410.21,40.44z"/>
	<path class="st6" d="M410.21,40.44c0,0-20.44,21.81-24.86,53.05c0,0,19.24-10.02,51.54,0C436.89,93.49,430.05,57.87,410.21,40.44z"
		/>
</g>
</svg>
