<?xml version="1.0" encoding="utf-8"?>
<!-- Generator: Adobe Illustrator 25.0.1, SVG Export Plug-In . SVG Version: 6.00 Build 0)  -->
<svg version="1.1" id="Слой_2" xmlns="http://www.w3.org/2000/svg" xmlns:xlink="http://www.w3.org/1999/xlink" x="0px" y="0px"
	 viewBox="0 0 490.66 303.19" style="enable-background:new 0 0 490.66 303.19;" xml:space="preserve">
<style type="text/css">
	.st0{fill:#ECF6FB;}
	.st1{fill:#2988BA;}
	.st2{opacity:0.6;fill:#FEFFFF;}
	.st3{fill:#EA5144;}
	.st4{fill:#123649;}
	.st5{fill:#82CAED;}
	.st6{fill:#2C84B2;}
	.st7{fill:#FFFFFF;}
	.st8{fill:#D5D6DA;}
	.st9{fill:none;stroke:#F1F2F2;stroke-width:1.0131;stroke-miterlimit:10;}
	.st10{fill:#E15443;}
	.st11{fill:#E3E2E2;}
	.st12{fill:#A2B8C6;}
	.st13{fill:#3587B9;}
	.st14{fill:#FFFFFE;}
	.st15{fill:#FFFEFA;}
	.st16{fill:#518CAC;}
	.st17{fill:#297199;}
	.st18{fill:#FAD2CC;}
	.st19{fill:#61ADCD;}
	.st20{fill:#9BD4F1;}
	.st21{fill:#E35043;}
	.st22{fill:#1E6086;}
	.st23{fill:#113446;}
	.st24{fill:#F9D1CA;}
	.st25{fill:#9BD4F2;}
	.st26{fill:#F8D5D1;}
	.st27{fill:#103444;}
	.st28{fill:#C6E7F8;}
	.st29{fill:#FAD1CF;}
	.st30{fill:#164563;}
	.st31{fill:#205F85;}
	.st32{fill:#2576A6;}
	.st33{fill:#FBD6D0;}
	.st34{fill:#1B5A7E;}
	.st35{fill:#FFF5EC;}
	.st36{fill:#E5533C;}
	.st37{fill:#133547;}
</style>
<g>
	<path class="st0" d="M187,36.61c0,0-66.46-30.73-110.59-9.26s-31.97,83.81-31.97,83.81s-8.53,44.19-29.49,69.95
		s-15.52,98.96,77.08,102.24l93.44-8.45l83.66-0.17l100.38,4.18l17.65,2.97c0,0,106.74-8.71,77.69-89.58l-27.25-52.68
		c0,0-14.61-27.16-5.3-53.03s-4.4-67.36-41.52-66.85s-44.23-3.16-94.07,13.57L187,36.61z"/>
	<path class="st1" d="M61.1,170.83l-4.19-4.19c-1.39-1.39-3.64-1.39-5.03,0c-1.39,1.39-1.39,3.64,0,5.03l4.19,4.19L61.1,170.83z"/>
	<path class="st2" d="M56.08,175.86l4.18,4.2c1.39,1.39,3.64,1.4,5.03,0.01c1.39-1.39,1.4-3.64,0.01-5.03l-4.18-4.2L56.08,175.86z"
		/>
	<path class="st3" d="M48.31,184.85l-5.85,0.92c-1.94,0.31-3.27,2.13-2.96,4.07c0.31,1.94,2.13,3.27,4.07,2.96l5.85-0.92
		L48.31,184.85z"/>
	<path class="st2" d="M49.43,191.87l5.85-0.91c1.94-0.3,3.27-2.12,2.97-4.06c-0.3-1.94-2.12-3.27-4.06-2.97l-5.85,0.91L49.43,191.87
		z"/>
	<path class="st1" d="M75.32,214.44l4.82-3.44c1.6-1.14,1.97-3.36,0.83-4.96c-1.14-1.6-3.36-1.97-4.96-0.83l-4.82,3.44L75.32,214.44
		z"/>
	<path class="st2" d="M71.19,208.66l-4.83,3.43c-1.6,1.14-1.98,3.36-0.84,4.96c1.14,1.6,3.36,1.98,4.96,0.84l4.83-3.43L71.19,208.66
		z"/>
	<path class="st1" d="M414.85,88.68l-1.11,5.82c-0.37,1.93,0.9,3.79,2.83,4.16c1.93,0.37,3.79-0.9,4.16-2.83l1.11-5.82L414.85,88.68
		z"/>
	<path class="st2" d="M421.83,90l1.13-5.82c0.37-1.93-0.89-3.79-2.82-4.17c-1.93-0.37-3.79,0.89-4.17,2.82l-1.13,5.82L421.83,90z"/>
	<path class="st3" d="M358.42,41.85l2.56,5.34c0.85,1.77,2.97,2.52,4.74,1.67c1.77-0.85,2.52-2.97,1.67-4.74l-2.56-5.34
		L358.42,41.85z"/>
	<path class="st2" d="M364.83,38.77l-2.55-5.35c-0.84-1.77-2.97-2.53-4.74-1.68c-1.77,0.84-2.53,2.97-1.68,4.74l2.55,5.35
		L364.83,38.77z"/>
	
		<ellipse transform="matrix(0.9879 -0.1554 0.1554 0.9879 -0.0856 29.2451)" class="st0" cx="187" cy="15.17" rx="16.57" ry="11.98"/>
	
		<ellipse transform="matrix(0.3241 -0.946 0.946 0.3241 -97.8483 97.9805)" class="st0" cx="19.64" cy="117.47" rx="22.15" ry="14.96"/>
	
		<ellipse transform="matrix(0.9786 -0.2059 0.2059 0.9786 -14.2354 97.7465)" class="st0" cx="462.45" cy="117.26" rx="22.69" ry="32.8"/>
	<g>
		<path class="st4" d="M120.94,208.61c0,0-2.33-3.49-8.08,0.45c-5.76,3.94-34.4,22.12-25.35,56.65c0,0,9.7,26.77,45.52,13.45
			l46.69-28.19l118.48-88.98l110.31-90.53c0,0,1.72-2.89-0.34-4.96c-2.07-2.07-6.25,1.08-6.25,1.08l-33.54,27.89L243.22,196.77
			l-65.3,46.17c0,0-45.02,30.78-48.38,29.62c0,0-29.36,15.91-36.6-15.58c0,0-2.72-27.61,25.74-42.68
			C118.68,214.3,123.25,211.99,120.94,208.61z"/>
		<path class="st5" d="M380.19,85.55c0,0-74.24-99.33-194.13-48.97c0,0,67.77,23.93,56.19,84.22c0,0,67.75,9.86,67.4,92.84
			c0,0,47.94,9.53,53.8,68.16C363.46,281.79,450.54,203.5,380.19,85.55z"/>
		<path class="st6" d="M242.25,120.79c0,0,80.89-79.42,139.54-32.5c0,0,24.43,73.65-72.14,125.34
			C309.66,213.63,314.62,136.37,242.25,120.79z"/>
	</g>
	<g>
		<path class="st3" d="M179.72,71.67c0,0-9.23-17.85-27.5-13.88s-17.42,31.21-0.78,46.9s28.28,23.19,28.28,23.19
			s28.88-17.85,37.76-37.94c8.88-20.09-1.55-32.79-17.5-32.74C199.98,57.21,189.55,56.66,179.72,71.67z"/>
		<polygon class="st7" points="144.65,96.36 167.21,96.36 171.45,82.05 179.03,112.32 186.71,69.12 192.78,101.67 195.85,96.15 
			213.91,96.45 212.73,98.19 196.7,98.06 192.4,106.69 186.9,78.72 179.28,120.79 171.45,89 168.69,97.96 145.95,98.33 		"/>
	</g>
	<g>
		<g>
			<polygon class="st8" points="170.93,146.33 180.84,283.25 273.04,283.49 278.34,144.26 			"/>
			<polygon class="st7" points="176.01,151.59 185.24,278.68 269.28,279.16 274.22,149.44 			"/>
			<polygon class="st9" points="186.06,165.09 211.54,165.09 211.54,182.67 186.06,183.19 			"/>
			<polygon class="st9" points="187.22,189.66 211.54,186.94 210.76,205.05 188.26,205.05 			"/>
			<polygon class="st9" points="188.91,210.87 210.76,209.06 210.76,222.43 188.91,222.43 			"/>
			<polygon class="st9" points="190.59,228.46 209.6,227.55 209.6,240.62 190.59,241.78 			"/>
			<polygon class="st9" points="190.59,246.82 209.6,245.92 209.6,261.18 192.27,261.95 			"/>
			<g>
				<polygon class="st10" points="192.4,171.25 188.91,172.97 198.8,180.82 208.95,165.09 203.69,165.09 198.09,176.43 				"/>
				<polygon class="st10" points="192.48,193.06 188.26,194.79 198.8,202.98 209.6,187.16 203.86,186.94 197.92,198.84 				"/>
				<polygon class="st10" points="192.31,212.21 187.83,214.3 198.52,222.03 208.78,206.43 203.78,206.43 197.74,218.07 				"/>
				<path class="st10" d="M192.66,230.92l-4.4,1.38c0,0,10.61,8.62,10.61,8.36c0-0.26,9.92-16.12,9.92-16.12h-5.35l-5.13,12.07
					L192.66,230.92z"/>
				<polygon class="st10" points="192.31,250.06 188.26,251.87 199.12,260.14 208.78,244.28 203.52,244.28 197.92,256.35 				"/>
			</g>
			<g>
				<polygon class="st11" points="257,164.37 215.48,164.7 215.81,169.16 257,167.61 				"/>
				<polygon class="st11" points="215.48,171.36 215.48,175.63 269.03,175.63 268.44,172.33 				"/>
				<polygon class="st11" points="215.48,178.02 215.48,182.87 244.78,182.42 244.51,178.54 				"/>
				<polygon class="st11" points="215.48,187.4 215.16,191.86 262.24,190.5 262.24,187.4 				"/>
				<polygon class="st11" points="215.16,193.86 215.16,197.81 251.76,197.81 251.08,194.96 				"/>
				<polygon class="st11" points="215.16,200.33 215.16,204.34 259.07,204.6 259.07,200.72 				"/>
				<polygon class="st11" points="214.45,211.52 214.45,215.74 251.08,215.74 250.4,212.49 				"/>
				<polygon class="st11" points="214.06,217.85 214.06,221.67 263.66,222.03 262.04,217.85 				"/>
				<polygon class="st11" points="214.45,226.65 214.45,231.43 243.22,231.43 242.64,228.07 				"/>
				<polygon class="st11" points="214.06,233.89 214.06,238.03 258.87,237.58 258.29,233.89 				"/>
				<polygon class="st11" points="214.06,245.92 214.06,250.06 255.58,250.31 254.99,246.63 				"/>
				<polygon class="st11" points="214.06,256.98 214.06,261.5 249.3,261.5 249.3,258.14 				"/>
			</g>
		</g>
		<circle class="st12" cx="223.56" cy="139.68" r="8.87"/>
		<path class="st13" d="M256.48,148.06l-62.54,1.19c-1.61,0.03-2.94-1.25-2.97-2.86l-0.08-4c-0.03-1.61,1.25-2.94,2.86-2.97
			l62.54-1.19c1.61-0.03,2.94,1.25,2.97,2.86l0.08,4C259.37,146.7,258.09,148.03,256.48,148.06z"/>
		<path class="st14" d="M252.18,143.23l-54.11,1.03c-0.69,0.01-1.25-0.53-1.27-1.22l-0.02-0.88c-0.01-0.69,0.53-1.25,1.22-1.27
			l54.11-1.03c0.69-0.01,1.25,0.53,1.27,1.22l0.02,0.88C253.41,142.65,252.86,143.22,252.18,143.23z"/>
	</g>
	<path class="st15" d="M355.7,107.27c0,0-29.83,16.9-36.21,31.73c0,0,26.64,76.91,84.15,69.15c0,0,40.18-30.18,0-107.6
		C403.64,100.55,379.76,96.58,355.7,107.27z"/>
	<path class="st16" d="M401.51,202.9c-50.66,8.08-75.63-61.33-75.63-61.33c1.09-2.78,3.05-5.63,5.47-8.45
		c9.43-10.96,25.95-21.03,25.95-21.03c21.06-10.14,42.24-6.97,42.24-6.97c11.7,22.07,16.19,39.97,16.85,54.13
		C417.82,189.77,401.51,202.9,401.51,202.9z"/>
	<path class="st17" d="M416.39,159.25c-6.57,1.53-13.47,2.34-20.6,2.34c-26.47,0-49.93-11.2-64.43-28.47
		c9.43-10.96,25.95-21.03,25.95-21.03c21.06-10.14,42.24-6.97,42.24-6.97C411.24,127.19,415.73,145.09,416.39,159.25z"/>
	
		<rect x="370.41" y="128.24" transform="matrix(0.8975 -0.441 0.441 0.8975 -28.7438 181.8141)" class="st7" width="12.71" height="49"/>
	
		<rect x="370.88" y="128.01" transform="matrix(0.441 0.8975 -0.8975 0.441 347.7538 -253.3169)" class="st7" width="12.71" height="49"/>
	<g>
		<path class="st18" d="M357.86,169.47c-1.46-0.15-2.89,2.23-3.2,5.31c-0.01,0.06-0.01,0.13-0.01,0.19
			c-0.22-0.4-0.45-0.63-0.62-0.58c-0.31,0.09-0.31,1.04-0.01,2.13c0.23,0.82,0.57,1.48,0.85,1.72c0.35,1.37,1.02,2.3,1.87,2.38
			c1.46,0.15,2.89-2.23,3.2-5.31C360.24,172.24,359.31,169.62,357.86,169.47z"/>
		<path class="st19" d="M345.35,182.89c-1.43,2.28-3.03,5.44-3.97,9.41c-2.39,10.08,1.04,18.52,2.53,21.69
			c1.28-1.08,2.57-2.17,3.85-3.25c0,0-2.85-14.74,0-25.95L345.35,182.89z"/>
		<path class="st20" d="M355.27,179.44c0,0,6.21,21.47-8.36,35.7c0,0-2.41,2.2-4.22,0c0,0-4.1,3.36,1.38,6.6v9.7
			c0,0,6.9,1.29,11.17-1.81c0,0-0.26-11.58,1.36-13.58s9.77-15.3,1.42-37.12L355.27,179.44z"/>
		<path class="st18" d="M344.85,257.59c0,0,5.2,19.93,6.02,24.28l-4.48,7.46l3.28,0.22l2.93-7.5c0,0,1.78-22.32-3.12-26.14
			l4.75-0.99c0,0,7.19,25.71,7.07,27.43c0,0-3.27,3.71-3.27,5.3l-1.98,1.68h3.28l3.84-6.81c0,0-0.52-22.63-2.5-25.18
			c0,0-1.43-1.31-1.77-3.13L344.85,257.59z"/>
		<path class="st21" d="M346.37,288.4l-2.3,2.04h6.53l1.39-3.82l0.19,3.98h1.23c0,0,0.91-6.63-0.55-8.31l-3.98,6.18L346.37,288.4z"
			/>
		<path class="st21" d="M356.63,288.4l-2.3,2.04h6.53l1.39-3.82l0.19,3.98h1.23c0,0,0.91-6.63-0.55-8.31l-3.98,6.18L356.63,288.4z"
			/>
		<path class="st22" d="M343.8,231.37c0,0-4.18,17.59,0.76,27.16c0,0,1.74-2.07,15.8-3.79c0.65-2.36,1.27-5.79,0.94-9.87
			c-0.63-7.69-4.26-13.09-6.07-15.43c-1.12,0.52-2.48,1.04-4.07,1.42C348.21,231.56,345.63,231.54,343.8,231.37z"/>
		<path class="st18" d="M347.34,193.8c0,0-4.48,4.27-5.17,7.16l1.51,0.22c0,0-2.33,5.35,3.66,5.43v4.01
			c-2.59,1.87-5.29,4.12-4.82,5.21c0.27,0.61,1.44,0.63,1.71,0.63c4.15,0.06,7.3-7.04,7.72-7.99l-1.68-2.03v-3.23
			c0,0,1.94-0.95,1.68-3.75c0,0-1.34-0.82-2.24,0.78l-2.28-2.63L347.34,193.8z"/>
		<path class="st23" d="M346.69,194.62l-2.11,2.03c0,0-2.24-4.1,0.6-5.65c2.85-1.55,4.27,0.73,4.27,0.73s4.7,2.24,7.37,1.55
			c2.67-0.69,3.19,12.29,3.19,12.29s2.33,3.45,0.39,7.16s0.3,6.04,0.3,6.04s2.24,4.83-2.16,5.91s-4.87-1.85-4.87-1.85l1.85-5.86
			l-4.01-7.98c0,0-3.79-1.6-0.78-6.08l0.13-2.59c0,0-1.16-0.34-1.75,0.67C349.13,200.97,345.12,198.65,346.69,194.62z"/>
	</g>
	<g>
		<path class="st24" d="M268.31,252.21l1.03,2.59c0,0,0.34,2.46-0.82,3.15c0,0-3.56,6.79,3.67,26.67l2.88,5.29l1.82-0.55l-3.03-4.36
			l0.78-32.79h3.19c0,0,0.22,3.41,0.56,4.22c0,0-4.27,2.87-0.82,14.63c3.45,11.76,3.54,13.56,3.54,13.56l2.45,5.16l2.32-0.35
			l-3.34-4.8l0.76-32.41H268.31z"/>
		<path class="st21" d="M276.71,289.17l1.59,1.52h-4.53l-0.96-2.84l-0.13,2.96h-0.85c0,0-0.63-4.94,0.38-6.19l2.76,4.6
			L276.71,289.17z"/>
		<path class="st21" d="M285.64,289.17l1.59,1.52h-4.53l-0.96-2.84l-0.13,2.96h-0.85c0,0-0.63-4.94,0.38-6.19l2.76,4.6
			L285.64,289.17z"/>
		<path class="st22" d="M266.76,252.74c0,0-4.7-18.59,5.26-25.32h9.66c0,0,4.35,2.22,3.32,25.32H266.76z"/>
		<path class="st25" d="M280.6,208.84l12.46,8.41c0,0-3.36,7.54-8.71,9.14l-1.6-1.68l4.53-4.74c0,0,0.43-1.68-0.99-1.72l-2.28,1.72
			l-0.34,2.93l-2.72,4.53h-8.92c0,0-7.42,0.45-13.45-8.6l4.79-4.25l4.25,6.64c0,0,1.79,3,3.97,3.97l0.19-7.29l-2.5-1.81l7.93-6.77
			l4.31,8.15L280.6,208.84z"/>
		<path class="st26" d="M277.2,209.32c0,0,1.7,1.14,3.41-0.47l-0.73-4.29c0,0,2.64-0.12,2.69-2.28c0.05-2.17,0-2.15,0-2.15l1.29,0
			c0,0,0.56-3.87-1.77-5.34l-8.27,2.07L277.2,209.32z"/>
		<path class="st27" d="M283.4,194.79c0,0,2.28-4.57-1.25-6.9c0,0-2.89-0.34-4.14,0.86l-4.61,0.32c0,0-4.47,1.36-5.73,5.95v6.89
			c0,0-8.4,8-5.28,13.52c0,0-1.31,5.25,2.48,6.26s5.78-4.18,5.78-4.18s1.44-3.6,4.15-4.86c2.72-1.26,4.08-5.05,1.67-8.76l-0.24-3.62
			c0,0-1.41-1.23-0.93-2.55c0.48-1.33,1.71-0.81,2.3-0.06c0.58,0.74,3.78-0.91,4.01-2.17c0.02-0.1,0.06-0.47,0.28-0.56
			c0.16-0.07,0.3,0.05,0.52,0.1C282.63,195.07,282.95,195.06,283.4,194.79z"/>
	</g>
	<g>
		<g>
			
				<ellipse transform="matrix(0.9875 -0.1579 0.1579 0.9875 -26.019 66.3572)" class="st28" cx="404.69" cy="196.96" rx="9.75" ry="17.41"/>
			
				<ellipse transform="matrix(0.9673 -0.2535 0.2535 0.9673 -37.1527 121.5076)" class="st28" cx="452.92" cy="204.92" rx="17.41" ry="9.75"/>
			
				<ellipse transform="matrix(0.5405 -0.8414 0.8414 0.5405 -3.7051 476.877)" class="st28" cx="434.71" cy="241.83" rx="9.75" ry="17.41"/>
			
				<ellipse transform="matrix(0.7899 -0.6132 0.6132 0.7899 -7.0244 316.1017)" class="st28" cx="457.85" cy="168.3" rx="17.41" ry="9.75"/>
			
				<ellipse transform="matrix(0.9995 -0.032 0.032 0.9995 -5.1149 13.7964)" class="st28" cx="428.23" cy="166.61" rx="9.75" ry="17.41"/>
			<path class="st28" d="M443.46,177.94l-10.25,13.98l-3.04-9.96l-1.19,1.94l2.61,10.5c0,0-10.71,22.29-20.8,29.1l-3.13-9.98
				l-1.84,0.1c0,0,1.58,8.86,3.52,11.19c0,0-7.21,7.95-13.81,10.25l-1.49,3.52c0,0,14.65-8.7,16.39-11.32l9.4,6.87l0.56-1.77
				l-8.79-6.45c0,0,12.63-12.03,14.96-18.37l10.09,0.17l-0.09-2.05l-8.82-0.19c0,0,13.89-25.1,17.29-26.27l0.82-1.79l-2.1-0.11
				L443.46,177.94z"/>
		</g>
		<g>
			
				<ellipse transform="matrix(0.7899 -0.6132 0.6132 0.7899 -38.3055 38.5741)" class="st28" cx="37.15" cy="75.2" rx="9.75" ry="17.41"/>
			
				<ellipse transform="matrix(0.9679 -0.2513 0.2513 0.9679 -17.1854 20.8603)" class="st28" cx="73.09" cy="77.72" rx="9.75" ry="17.41"/>
			
				<ellipse transform="matrix(0.9865 -0.1636 0.1636 0.9865 -19.8385 12.9087)" class="st28" cx="68.43" cy="126.87" rx="17.41" ry="9.75"/>
			
				<ellipse transform="matrix(0.5415 -0.8407 0.8407 0.5415 -28.5143 137.5517)" class="st28" cx="111.85" cy="94.92" rx="17.41" ry="9.75"/>
			
				<ellipse transform="matrix(0.9974 -0.0726 0.0726 0.9974 -7.482 2.9737)" class="st28" cx="37.15" cy="104.36" rx="17.41" ry="9.75"/>
			
				<ellipse transform="matrix(0.7899 -0.6132 0.6132 0.7899 -50.7262 109.1858)" class="st28" cx="134" cy="128.63" rx="17.41" ry="9.75"/>
			
				<ellipse transform="matrix(0.8977 -0.4405 0.4405 0.8977 -57.0465 84.2323)" class="st28" cx="152.91" cy="164.99" rx="17.41" ry="9.75"/>
			
				<ellipse transform="matrix(0.9865 -0.1636 0.1636 0.9865 -23.644 17.0398)" class="st28" cx="91.6" cy="152.03" rx="17.41" ry="9.75"/>
			
				<ellipse transform="matrix(0.7071 -0.7071 0.7071 0.7071 -102.3563 135.0601)" class="st28" cx="111.85" cy="191.08" rx="17.41" ry="9.75"/>
			<path class="st28" d="M47.29,89.32c0,0,8.36,7.22,13.92,9.42l-7.89,2.76l0.52,1.77l9.79-3.45c0,0,21.81,9.27,31.19,19.68
				l-10.09,3.75l-0.19,1.94l11.45-4.31c0,0,14.46,14.89,19.21,25.76l-7.85,2.59l1.3,1.4l7.71-2.21l14.68,29.1l-7.15,1.75l1.03,1.42
				l6.66-1c0,0,9.78,19.69,13.61,22.58c0,0-3.58,5.3-3.15,6.85l1.55,0.82c0,0,1.98-5.82,2.89-6.29l4.96,6.29l1.94-1.16l-5.78-6.51
				l6.42-0.82l-0.65-1.85l-6.98,1.29l-13.32-22.25l5.6-5.48l-1.34-1.68l-4.57,4.79l-15.17-29.53l4.44-6.98l-1.98-1.34l-3.15,6.38
				c0,0-12.33-20.35-18.88-25.26l6.64-9.87l-2.24-1.08l-5.95,9.53c0,0-6.47-7.72-19.27-13.73l-0.17-10.84l-2.37,0.22l0.17,8.58
				c0,0-15.39-4.72-26.38-14.67L47,89.14L47.29,89.32z"/>
			
				<ellipse transform="matrix(0.6085 -0.7935 0.7935 0.6085 -121.8258 192.3786)" class="st28" cx="134.07" cy="219.66" rx="17.41" ry="9.75"/>
			<ellipse class="st28" cx="170.32" cy="199.09" rx="17.41" ry="9.75"/>
		</g>
	</g>
	<g>
		<path class="st29" d="M167.18,196.56c0-4.24-2.62-7.67-5.84-7.67s-5.84,3.44-5.84,7.67c0,2.68,1.05,5.04,2.64,6.41l-0.01,0
			l-0.26,6.26l5.3-1.38l-0.38-3.86l-0.02,0C165.3,203.14,167.18,200.14,167.18,196.56z"/>
		<path class="st30" d="M159.16,290.49h-8.32c0,0,0.47-2.24,1.29-2.41c0.82-0.17,3.88,0,3.88,0L159.16,290.49z"/>
		<path class="st30" d="M183.96,290.49h-7.92c0,0,0.13-1.48,1.1-2.35h4.07L183.96,290.49z"/>
		<path class="st31" d="M157.05,235.57c0,0-6.04,40.35-4.91,51.3h2.39l10.03-37.94l11.81,37.94h2.85c0,0-6.04-48.63-9.23-51.91
			L157.05,235.57z"/>
		<path class="st32" d="M155.49,236.09c0,0-13.02,0.45-20.26-9.44c0,0,5.5-13.97,22.76-20.57h5.95l11.9,7.18l0.78,11.7l-4.85-2.85
			l-0.39,12.85l-14.33,0.6c0,0-1.36-12.74-5.05-15.78l-5.25,4.98c0,0,2.37,6.62,8.75,10.2V236.09z"/>
		<path class="st33" d="M155.49,234.97l1.76-0.53c0,0,1.16-1.39,2-0.68s3.36,2.81,2.23,5.33c-1.13,2.52-4.17-3.54-4.17-3.54
			l-1.82,0.53V234.97z"/>
		<polygon class="st34" points="158,206.08 153.52,208.07 156.51,211.16 154.18,215.04 165.27,223.48 168.28,211.74 165.69,210.32 
			166.65,207.71 163.94,206.08 		"/>
		<polygon class="st35" points="158,206.08 163.78,218.24 164.33,212.84 163.39,206.08 		"/>
		<polygon class="st36" points="159.39,207.34 162.1,210.22 162.26,215.33 165.27,221.25 164.56,212.61 162.68,210.06 
			162.88,207.34 		"/>
		<path class="st37" d="M165.65,191.38c0.12,0.13,0.53,0.54,1.07,0.51c0.33-0.02,0.58-0.19,0.76-0.38c1.03-1.08,2.97-3.02,0.86-5.56
			c0,0-2.41-0.56-3.62,1.51l-8.06-0.13c0,0-7.07,1.16-4.01,8.84c0,0,2.24,2.37,3.58,5.35c1.34,2.97,5.26,0.22,3.58-2.59
			c0,0-1.55,0.04-1.81-1.77s1.55-2.28,2.28-1.29c0.73,0.99,4.44-1.85,4.31-3.32c-0.02-0.22-0.07-0.66,0.21-0.94
			C165.03,191.38,165.39,191.36,165.65,191.38z"/>
	</g>
</g>
</svg>
