<?xml version="1.0" encoding="utf-8"?>
<!-- Generator: Adobe Illustrator 25.0.1, SVG Export Plug-In . SVG Version: 6.00 Build 0)  -->
<svg version="1.1" id="logo" xmlns="http://www.w3.org/2000/svg" xmlns:xlink="http://www.w3.org/1999/xlink" x="0px" y="0px"
	 viewBox="0 0 371.67 80.67" style="enable-background:new 0 0 371.67 80.67;" xml:space="preserve">
<style type="text/css">
	.st0{fill:#1D1D1B;}
	.st1{fill:none;stroke:#1D1D1B;stroke-width:2;stroke-miterlimit:10;}
	.st2{fill:#08C2F5;}
</style>
<g>
	<path class="st0" d="M78.66,48.92c-1.24-0.67-2.18-1.64-2.83-2.93c-0.65-1.28-0.97-2.83-0.97-4.63v-3.2c0-1.78,0.32-3.31,0.97-4.57
		s1.59-2.24,2.83-2.9c1.24-0.66,2.72-0.99,4.46-0.99s3.22,0.33,4.46,0.99c1.24,0.66,2.18,1.63,2.83,2.9
		c0.65,1.27,0.97,2.79,0.97,4.57v3.26c0,1.79-0.33,3.32-0.97,4.59c-0.65,1.27-1.59,2.24-2.83,2.91s-2.72,1-4.46,1
		S79.9,49.59,78.66,48.92z M86.31,44.98c0.75-0.85,1.13-2.03,1.13-3.56v-3.26c0-1.53-0.38-2.71-1.13-3.54s-1.82-1.25-3.19-1.25
		s-2.44,0.42-3.19,1.25c-0.75,0.83-1.13,2.01-1.13,3.54v3.26c0,1.53,0.38,2.72,1.13,3.56c0.75,0.85,1.82,1.27,3.19,1.27
		S85.56,45.82,86.31,44.98z"/>
	<path class="st0" d="M94.47,29.97h15.56v3.49H94.47V29.97z M100.28,32.04h3.94v17.6h-3.94V32.04z"/>
	<path class="st0" d="M115.24,29.97h3.94v19.66h-3.94V29.97z M117.15,37.95h7.24v3.67h-7.24V37.95z M121.13,38.35l5.44-8.37h4.75
		l-8.4,11.76L121.13,38.35z M121.3,41.34l3.07-1.99l8.13,10.29h-5.27L121.3,41.34z"/>
	<path class="st0" d="M135.58,29.97h3.94v27.66h-3.94V29.97z M141.3,49.04c-0.93-0.59-1.61-1.42-2.05-2.49l0.27-4.11
		c0,0.85,0.15,1.57,0.46,2.16c0.31,0.59,0.76,1.05,1.34,1.36c0.59,0.32,1.3,0.47,2.13,0.47c1.3,0,2.31-0.39,3.02-1.17
		c0.71-0.78,1.07-1.87,1.07-3.29v-4.26c0-1.44-0.36-2.56-1.07-3.35c-0.71-0.8-1.72-1.19-3.02-1.19c-0.84,0-1.55,0.15-2.13,0.45
		c-0.59,0.3-1.03,0.75-1.34,1.34c-0.31,0.59-0.46,1.29-0.46,2.11l-0.41-3.79c0.6-1.15,1.4-2.04,2.37-2.66s2.07-0.94,3.26-0.94
		c1.42,0,2.63,0.31,3.64,0.94s1.78,1.54,2.31,2.74c0.53,1.2,0.79,2.65,0.79,4.34v4.28c0,1.67-0.27,3.09-0.81,4.28
		c-0.54,1.19-1.33,2.09-2.37,2.72c-1.04,0.62-2.29,0.94-3.74,0.94C143.31,49.92,142.22,49.63,141.3,49.04z"/>
	<path class="st0" d="M157.08,29.97h3.94v19.66h-3.94V29.97z M159,45.96h6.1c0.8,0,1.44-0.25,1.92-0.74
		c0.48-0.49,0.72-1.14,0.72-1.95c0-0.54-0.11-1.02-0.33-1.42c-0.22-0.4-0.53-0.72-0.93-0.95c-0.4-0.23-0.86-0.34-1.39-0.34H159
		v-3.67h5.95c1.38,0,2.59,0.27,3.65,0.8c1.05,0.53,1.88,1.28,2.46,2.24c0.59,0.96,0.88,2.08,0.88,3.35c0,1.26-0.29,2.37-0.87,3.33
		c-0.58,0.96-1.4,1.7-2.45,2.24c-1.06,0.53-2.28,0.8-3.67,0.8H159V45.96z M174.84,29.97h3.94v19.66h-3.94V29.97z"/>
	<path class="st0" d="M182.25,29.97h15.56v3.49h-15.56V29.97z M188.06,32.04H192v17.6h-3.94V32.04z"/>
	<path class="st0" d="M215.61,49.62V35.66l0.46,0.49l-9.63,13.47h-3.42V29.97h3.9v14.28l-0.46-0.49l9.67-13.79h3.38v19.64H215.61z"
		/>
	<path class="st0" d="M229.14,48.9c-1.31-0.68-2.31-1.68-3-3c-0.69-1.32-1.03-2.91-1.03-4.78V38.9c0-1.94,0.33-3.6,0.99-4.98
		c0.66-1.38,1.62-2.42,2.89-3.14c1.26-0.72,2.78-1.08,4.56-1.08c1.67,0,3.1,0.41,4.28,1.23c1.18,0.82,2.09,2.01,2.71,3.56
		s0.94,3.42,0.94,5.59v1.29h-13.51v-3.11h9.77c-0.12-1.6-0.54-2.85-1.26-3.74c-0.73-0.89-1.7-1.34-2.92-1.34
		c-1.49,0-2.65,0.48-3.46,1.44c-0.82,0.96-1.23,2.32-1.23,4.07v2.5c0,1.63,0.44,2.88,1.31,3.75c0.88,0.87,2.12,1.31,3.73,1.31
		c0.8,0,1.59-0.16,2.37-0.47c0.79-0.32,1.49-0.76,2.1-1.33l2.59,2.54c-0.99,0.93-2.1,1.66-3.34,2.17c-1.24,0.51-2.48,0.77-3.73,0.77
		C232.03,49.92,230.45,49.58,229.14,48.9z"/>
</g>
<g>
	<path class="st0" d="M269.3,35.19h1.36v9.72h-1.36V35.19z M269.96,35.19h5.29v1.3h-5.29V35.19z M270,43.61h3.09
		c0.31,0,0.58-0.06,0.79-0.19c0.22-0.12,0.39-0.31,0.5-0.55c0.12-0.24,0.17-0.53,0.17-0.87c0-0.34-0.06-0.63-0.17-0.88
		c-0.12-0.24-0.28-0.42-0.5-0.55s-0.48-0.19-0.79-0.19H270v-1.3h3.04c0.61,0,1.13,0.11,1.57,0.34c0.43,0.23,0.77,0.56,0.99,1
		c0.23,0.44,0.34,0.96,0.34,1.58c0,0.61-0.11,1.13-0.34,1.57c-0.23,0.43-0.56,0.77-0.99,0.99c-0.43,0.23-0.96,0.34-1.57,0.34H270
		V43.61z"/>
	<path class="st0" d="M278.15,44.48c-0.42-0.35-0.63-0.89-0.63-1.61c0-0.69,0.19-1.2,0.58-1.54c0.39-0.34,0.97-0.51,1.75-0.51h1.96
		l0.09,1.1h-2.05c-0.35,0-0.62,0.08-0.79,0.24c-0.17,0.16-0.26,0.4-0.26,0.73c0,0.35,0.12,0.61,0.35,0.78
		c0.23,0.17,0.59,0.25,1.06,0.25c0.52,0,0.91-0.06,1.16-0.17c0.25-0.11,0.38-0.29,0.38-0.52l0.14,0.98
		c-0.12,0.19-0.27,0.34-0.44,0.46c-0.18,0.12-0.38,0.21-0.61,0.27c-0.23,0.06-0.49,0.09-0.78,0.09
		C279.2,45.01,278.57,44.83,278.15,44.48z M281.74,40.51c0-0.45-0.12-0.81-0.36-1.06c-0.24-0.25-0.58-0.38-1.03-0.38
		c-0.27,0-0.54,0.04-0.81,0.13s-0.5,0.2-0.7,0.35l-0.99-0.68c0.26-0.32,0.61-0.56,1.03-0.74c0.43-0.18,0.9-0.26,1.43-0.26
		c0.57,0,1.06,0.1,1.47,0.3c0.41,0.2,0.72,0.5,0.93,0.88c0.21,0.39,0.32,0.85,0.32,1.39v4.46h-1.29V40.51z"/>
	<path class="st0" d="M285.09,37.97h1.36v6.94h-1.36V37.97z M285.94,40.88h4.23v1.23h-4.23V40.88z M289.45,37.97h1.36v6.94h-1.36
		V37.97z"/>
	<path class="st0" d="M292.94,37.97h1.36v6.94h-1.36V37.97z M293.59,40.78h2.49v1.3h-2.49V40.78z M294.96,40.92l1.87-2.95h1.64
		l-2.89,4.15L294.96,40.92z M295.02,41.98l1.06-0.7l2.8,3.63h-1.81L295.02,41.98z"/>
</g>
<line class="st1" x1="254.96" y1="19.09" x2="254.96" y2="62.53"/>
<path class="st2" d="M40.28,18.61c-12,0-21.72,9.72-21.72,21.72c0,12,9.72,21.72,21.72,21.72c12,0,21.72-9.72,21.72-21.72
	C62,28.34,52.28,18.61,40.28,18.61z M31.16,40.33c0.72,6.24,3.12,6.97,6.24,9.3l-1.68,4.49c0,0-9.6-3.35-9.72-13.8
	c0,0,0.36-11.16,9.96-14.04l1.44,4.68C37.4,30.97,30.44,34.1,31.16,40.33z M45.68,54.25L44,49.76c3.12-2.33,5.52-3.07,6.24-9.3
	c0.72-6.24-6.24-9.36-6.24-9.36l1.44-4.68c9.6,2.88,9.96,14.04,9.96,14.04C55.28,50.9,45.68,54.25,45.68,54.25z"/>
</svg>
