<?xml version="1.0" encoding="utf-8"?>
<!-- Generator: Adobe Illustrator 25.0.1, SVG Export Plug-In . SVG Version: 6.00 Build 0)  -->
<svg version="1.1" id="Слой_1" xmlns="http://www.w3.org/2000/svg" xmlns:xlink="http://www.w3.org/1999/xlink" x="0px" y="0px"
	 viewBox="0 0 42.84 42.71" style="enable-background:new 0 0 42.84 42.71;" xml:space="preserve">
<style type="text/css">
	.st0{fill:#333944;}
</style>
<rect y="0.26" class="st0" width="42.84" height="42.84"/>
<path d="M33.6,0.26H9.24C4.14,0.26,0,4.4,0,9.5v24.36c0,5.1,4.14,9.24,9.24,9.24H33.6c5.1,0,9.24-4.14,9.24-9.24V9.5
	C42.84,4.4,38.7,0.26,33.6,0.26z M36.55,30.3h-6.09c0,0-1.49-5.24-6.89-6.07v6.07c0,0-17.34,1.68-17.34-17.28h5.17
	c0,0,0.32,10.23,6.11,11.43c0.21,0.04,0.44,0.08,0.67,0.1V13.02h5.4v6.6c0,0,4.13-1.36,6.66-6.6h5.28c0,0,0.11,4.4-5.74,8.69
	C29.77,21.71,37.35,26.95,36.55,30.3z"/>
</svg>
