<?xml version="1.0" encoding="utf-8"?>
<!-- Generator: Adobe Illustrator 25.0.1, SVG Export Plug-In . SVG Version: 6.00 Build 0)  -->
<svg version="1.1" id="Слой_1" xmlns="http://www.w3.org/2000/svg" xmlns:xlink="http://www.w3.org/1999/xlink" x="0px" y="0px"
	 viewBox="0 0 42.84 42.71" style="enable-background:new 0 0 42.84 42.71;" xml:space="preserve">
<style type="text/css">
	.st0{fill:#333944;}
	.st1{stroke:#333944;stroke-width:3;stroke-miterlimit:10;}
</style>
<rect y="-0.13" class="st0" width="42.84" height="42.84"/>
<g>
	<path d="M35.52,42.71H7.32C3.28,42.71,0,39.43,0,35.39V7.19c0-4.04,3.28-7.32,7.32-7.32h28.2c4.04,0,7.32,3.28,7.32,7.32v28.2
		C42.84,39.43,39.56,42.71,35.52,42.71z"/>
	<circle class="st1" cx="21.42" cy="20.4" r="13.87"/>
	<polyline class="st1" points="9.41,27.33 7.55,34.26 14.53,32.43 	"/>
	<path d="M13.83,28.8l-2.61-2.83c0,0-1.17,4.95-1.17,5.14l-0.4,1.34l1.57-0.32l5.22-1.03L13.83,28.8z"/>
	<path class="st0" d="M26.08,21.57c-1.59-0.79-2.56,1.35-2.56,1.35c-0.14,0.21-0.33,0.29-0.53,0.3c-0.88-0.38-3.19-1.52-4.42-3.6
		c0,0-0.87-1.18-0.1-1.65c0,0,2.17-0.91,1.43-2.52c0,0-0.79-3.62-2.8-2.93l-2.43,0.58c0,0-1.69-0.23-0.32,4.43
		c0,0,1.43,6.22,7.87,8.9c0.96,0.45,1.61,0.62,1.61,0.62c4.62,1.51,4.44-0.19,4.44-0.19l0.65-2.42
		C29.67,22.47,26.08,21.57,26.08,21.57z"/>
</g>
</svg>
